<?xml version="1.0" encoding="iso-8859-1"?>
<!-- Generator: Adobe Illustrator 29.4.0, SVG Export Plug-In . SVG Version: 9.03 Build 0)  -->
<svg version="1.1" id="Capa_1" xmlns="http://www.w3.org/2000/svg" xmlns:xlink="http://www.w3.org/1999/xlink" x="0px" y="0px"
	 viewBox="0 0 850.394 900.02" style="enable-background:new 0 0 850.394 900.02;" xml:space="preserve">
<circle style="fill:#3257A4;stroke:#2B4E9D;stroke-width:3;stroke-miterlimit:10;" cx="425.053" cy="426.197" r="308.687"/>
<path style="fill:#FFFFFF;stroke:#284597;stroke-width:3;stroke-miterlimit:10;" d="M628.258,264.36V527.87
	c0,12.128-4.914,23.108-12.864,31.055c-7.947,7.949-18.927,12.864-31.055,12.864c-12.128,0-23.108,4.914-31.055,12.864
	c-7.949,7.947-12.864,18.927-12.864,31.055s-4.914,23.108-12.864,31.055c-7.947,7.949-18.927,12.864-31.055,12.864H320.83
	c-24.256,0-43.918-19.662-43.918-43.918c0-12.128-4.914-23.108-12.864-31.055c-7.947-7.949-18.927-12.864-31.055-12.864
	c-24.256,0-43.918-19.662-43.918-43.918c0-12.128,4.914-23.108,12.864-31.055c7.947-7.949,18.927-12.864,31.055-12.864
	s23.108,4.914,31.055,12.864c7.949,7.947,12.864,18.927,12.864,31.055c0,24.256,19.662,43.918,43.918,43.918h175.673
	c12.128,0,23.108-4.914,31.055-12.864c7.949-7.947,12.864-18.927,12.864-31.055V264.36c0-12.128,4.914-23.108,12.864-31.055
	c7.947-7.949,18.927-12.864,31.055-12.864c12.128,0,23.108,4.914,31.055,12.864C623.343,241.253,628.258,252.232,628.258,264.36z"/>
</svg>
