<?xml version="1.0" encoding="iso-8859-1"?>
<!-- Generator: Adobe Illustrator 29.4.0, SVG Export Plug-In . SVG Version: 9.03 Build 0)  -->
<svg version="1.1" id="Capa_1" xmlns="http://www.w3.org/2000/svg" xmlns:xlink="http://www.w3.org/1999/xlink" x="0px" y="0px"
	 viewBox="0 0 2003 13978" style="enable-background:new 0 0 2003 13978;" xml:space="preserve">
<g>
	<path d="M-5954.443,11867.988v129.504h0.004v129.504h-0.004v194.253c0,17.881-6.678,34.07-17.481,45.79
		c-10.803,11.715-25.722,18.965-42.203,18.965h-477.486c-32.965,0-59.688-28.991-59.688-64.754v-518.017
		c0-17.88,6.678-34.069,17.481-45.785c10.803-11.715,25.722-18.965,42.203-18.965c16.481,0,31.405,7.25,42.208,18.965
		c10.798,11.716,17.481,27.905,17.481,45.785v388.507c0,35.766,26.726,64.76,59.693,64.76h238.736
		c16.481,0,31.404-7.25,42.208-18.97c10.798-11.715,17.481-27.904,17.481-45.785v-194.253h-0.004v-129.504h0.004v-64.755
		c0-17.88,6.678-34.069,17.481-45.785c10.803-11.715,25.722-18.965,42.203-18.965c16.481,0,31.404,7.25,42.203,18.965
		c10.803,11.716,17.486,27.905,17.486,45.785v64.755H-5954.443z"/>
	<path d="M-7404.443,11997.492v-64.75c0-17.88-6.678-34.069-17.481-45.784c-10.803-11.721-25.722-18.97-42.203-18.97
		c-32.962,0-59.688-28.99-59.688-64.75c0-17.88-6.683-34.069-17.481-45.789c-10.799-11.716-25.722-18.966-42.203-18.966h-238.745
		c-16.481,0-31.404,7.25-42.203,18.966c-10.799,11.72-17.481,27.909-17.481,45.789s-6.683,34.07-17.485,45.785
		c-10.798,11.715-25.722,18.965-42.203,18.965c-16.481,0-31.404,7.249-42.203,18.97c-10.803,11.715-17.486,27.904-17.486,45.784
		v64.75h0.005v194.866c0,35.682,26.839,64.115,59.729,64.142c16.463,0.014,31.364,7.256,42.157,18.965
		c10.789,11.704,17.464,27.862,17.481,45.72c0.035,35.696,26.257,64.819,59.161,64.819h239.273c16.481,0,31.404-7.25,42.203-18.965
		c10.798-11.715,17.481-27.904,17.481-45.784c0-17.886,6.683-34.07,17.481-45.79c10.803-11.72,25.726-18.965,42.208-18.965
		c16.481,0,31.4-7.245,42.203-18.965c10.803-11.72,17.481-27.904,17.481-45.785v-64.754h0.004v-129.504H-7404.443z
		 M-7523.812,12126.996h-0.004v64.754c0,17.881-6.683,34.065-17.481,45.785c-10.799,11.72-25.722,18.965-42.203,18.965h-238.741
		c-32.965,0-59.688-28.991-59.688-64.754v-194.254h-0.004v-64.75c0-17.88,6.683-34.069,17.481-45.784
		c10.803-11.721,25.727-18.97,42.208-18.97h238.745c16.481,0,31.404,7.249,42.203,18.97c10.798,11.715,17.481,27.904,17.481,45.784
		v64.75h0.004V12126.996z"/>
	<path d="M-6737.261,12126.996c-32.962,0-59.688-28.99-59.688-64.75c0-17.88,6.683-34.069,17.486-45.789
		c10.798-11.715,25.722-18.965,42.203-18.965c16.481,0,31.4-7.25,42.203-18.965c10.803-11.715,17.481-27.905,17.481-45.785
		c0-17.885-6.678-34.069-17.481-45.789c-10.803-11.721-25.722-18.965-42.203-18.965c-32.962,0-59.688-28.99-59.688-64.75
		c0-17.88-6.683-34.069-17.481-45.785c-10.798-11.72-25.722-18.97-42.203-18.97h-358.118c-16.481,0-31.4,7.25-42.203,18.97
		c-10.803,11.716-17.481,27.905-17.481,45.785v64.75h-0.004v129.504h0.004v129.504h-0.004v193.586
		c0,35.323,25.831,64.653,58.384,65.407c16.997,0.393,32.42-6.922,43.507-18.95c10.803-11.72,17.481-27.904,17.481-45.785v-129.504
		c0-17.885,6.683-34.069,17.481-45.789c10.803-11.72,25.726-18.965,42.208-18.965h238.745c16.481,0,31.404,7.245,42.203,18.965
		s17.481,27.904,17.481,45.789v128.832c0,35.324,25.832,64.653,58.385,65.407c16.997,0.393,32.419-6.922,43.507-18.95
		c10.803-11.72,17.481-27.904,17.481-45.785v-129.504c0-17.885-6.678-34.069-17.481-45.789
		C-6705.861,12134.241-6720.779,12126.996-6737.261,12126.996z M-6814.43,11978.527c-10.798,11.715-25.722,18.965-42.203,18.965
		h-238.135c-32.566,0-59.603-28.035-60.286-63.357c-0.356-18.437,6.385-35.159,17.468-47.182
		c10.803-11.721,25.722-18.965,42.208-18.965h238.745c16.481,0,31.404,7.244,42.203,18.965
		c10.798,11.72,17.481,27.904,17.481,45.789C-6796.949,11950.622-6803.632,11966.812-6814.43,11978.527z"/>
	<path d="M-9564.439,11803.238v388.512c0,17.881-6.683,34.07-17.48,45.785c-10.799,11.715-25.722,18.965-42.203,18.965h-0.004
		c-16.481,0-31.4,7.25-42.203,18.97c-10.803,11.715-17.481,27.904-17.481,45.784c0,17.881-6.678,34.065-17.481,45.785
		c-10.803,11.72-25.722,18.965-42.207,18.965h-239.34c-32.878,0-59.074-29.111-59.089-64.78
		c-0.008-17.868-6.689-34.046-17.481-45.754c-10.799-11.72-25.722-18.97-42.203-18.97c-32.967,0-59.688-28.989-59.688-64.75
		c0-17.88,6.679-34.069,17.481-45.789c10.803-11.715,25.722-18.965,42.207-18.965c16.481,0,31.404,7.25,42.203,18.965
		c10.799,11.72,17.481,27.909,17.481,45.789c0,35.761,26.722,64.75,59.688,64.75h238.745c16.48,0,31.399-7.25,42.202-18.965
		c10.804-11.715,17.481-27.904,17.481-45.785v-388.512c0-17.88,6.679-34.065,17.481-45.785s25.722-18.965,42.207-18.965
		c16.481,0,31.404,7.245,42.203,18.965C-9571.122,11769.173-9564.439,11785.358-9564.439,11803.238z"/>
	<path d="M-8861.92,11886.958c-10.803-11.721-25.722-18.965-42.203-18.965c-32.967,0-59.688-28.99-59.688-64.75
		c0-17.88-6.683-34.069-17.481-45.79c-10.798-11.715-25.722-18.965-42.202-18.965h-238.745c-16.485,0-31.404,7.25-42.208,18.965
		c-10.803,11.721-17.48,27.91-17.48,45.79s-6.679,34.064-17.481,45.785c-10.803,11.72-25.722,18.965-42.203,18.965
		c-16.48,0-31.404,7.244-42.207,18.965c-10.799,11.72-17.481,27.904-17.481,45.784v387.845c0,35.323,25.832,64.653,58.385,65.407
		c16.997,0.393,32.42-6.922,43.507-18.95c10.803-11.72,17.481-27.904,17.481-45.789v-129.505c0-17.88,6.683-34.069,17.48-45.784
		c10.804-11.715,25.727-18.965,42.208-18.965h238.745c16.48,0,31.399,7.25,42.202,18.965c10.804,11.715,17.481,27.904,17.481,45.784
		v128.837c0,35.324,25.832,64.654,58.385,65.407c16.997,0.393,32.42-6.922,43.507-18.95c10.803-11.72,17.48-27.904,17.48-45.789
		v-388.513C-8844.439,11914.862-8851.117,11898.678-8861.92,11886.958z M-8981.293,11978.532
		c-10.798,11.715-25.722,18.965-42.202,18.965h-238.13c-32.561,0-59.596-28.024-60.29-63.341
		c-0.362-18.439,6.38-35.171,17.467-47.198c10.804-11.721,25.723-18.965,42.208-18.965h238.745c16.48,0,31.404,7.244,42.202,18.965
		c10.799,11.72,17.481,27.904,17.481,45.784S-8970.494,11966.812-8981.293,11978.532z"/>
	<path d="M-8124.439,11803.233v388.512c0,17.88-6.683,34.07-17.481,45.79c-10.803,11.715-25.727,18.965-42.208,18.965
		s-31.4,7.25-42.203,18.965s-17.481,27.904-17.481,45.784c0,17.886-6.678,34.07-17.481,45.79
		c-10.803,11.72-25.722,18.965-42.207,18.965h-238.745c-32.962,0-59.684-28.989-59.684-64.755c0-17.88-6.683-34.069-17.481-45.784
		c-10.803-11.715-25.722-18.965-42.203-18.965l0,0c-32.965,0-59.688-28.991-59.688-64.755v-388.512
		c0-17.88,6.679-34.069,17.481-45.785c10.803-11.715,25.722-18.965,42.207-18.965c16.481,0,31.404,7.25,42.203,18.965
		c10.799,11.716,17.481,27.905,17.481,45.785v388.512c0,35.765,26.717,64.75,59.684,64.755h238.745
		c16.485,0,31.404-7.25,42.207-18.965c10.804-11.72,17.481-27.91,17.481-45.79v-388.512c0-17.88,6.679-34.069,17.481-45.785
		c10.803-11.715,25.722-18.965,42.203-18.965s31.404,7.25,42.208,18.965C-8131.122,11769.164-8124.439,11785.354-8124.439,11803.233
		z"/>
</g>
<path d="M-5985.703,12682.988v129.504h0.005v129.504h-0.005v194.253c0,17.881-6.678,34.07-17.481,45.79
	c-10.803,11.715-25.722,18.965-42.203,18.965h-477.486c-32.965,0-59.688-28.991-59.688-64.754v-518.017
	c0-17.88,6.678-34.069,17.481-45.785c10.803-11.715,25.722-18.965,42.203-18.965c16.481,0,31.405,7.25,42.208,18.965
	c10.798,11.716,17.481,27.905,17.481,45.785v388.507c0,35.766,26.726,64.76,59.693,64.76h238.736c16.481,0,31.404-7.25,42.207-18.97
	c10.799-11.715,17.481-27.904,17.481-45.785v-194.253h-0.004v-129.504h0.004v-64.755c0-17.88,6.678-34.069,17.481-45.785
	c10.803-11.715,25.722-18.965,42.203-18.965c16.481,0,31.404,7.25,42.203,18.965c10.803,11.716,17.486,27.905,17.486,45.785v64.755
	H-5985.703z"/>
<path d="M-7435.703,12812.492v-64.75c0-17.88-6.678-34.069-17.481-45.784c-10.803-11.721-25.722-18.97-42.203-18.97
	c-32.962,0-59.688-28.99-59.688-64.75c0-17.88-6.683-34.069-17.481-45.789c-10.798-11.716-25.722-18.966-42.203-18.966h-238.745
	c-16.481,0-31.404,7.25-42.203,18.966c-10.798,11.72-17.481,27.909-17.481,45.789s-6.683,34.07-17.485,45.785
	c-10.798,11.715-25.722,18.965-42.203,18.965c-16.481,0-31.404,7.249-42.203,18.97c-10.803,11.715-17.486,27.904-17.486,45.784
	v64.75h0.004v194.866c0,35.682,26.839,64.115,59.73,64.142c16.463,0.014,31.364,7.256,42.157,18.965
	c10.789,11.704,17.463,27.862,17.481,45.72c0.035,35.696,26.257,64.819,59.161,64.819h239.273c16.481,0,31.404-7.25,42.203-18.965
	c10.799-11.715,17.481-27.904,17.481-45.784c0-17.886,6.683-34.07,17.481-45.79c10.803-11.72,25.726-18.965,42.208-18.965
	c16.481,0,31.4-7.245,42.203-18.965s17.481-27.904,17.481-45.785v-64.754h0.005v-129.504H-7435.703z M-7555.071,12941.996h-0.004
	v64.754c0,17.881-6.683,34.065-17.481,45.785c-10.798,11.72-25.722,18.965-42.203,18.965H-7853.5
	c-32.965,0-59.688-28.991-59.688-64.754v-194.254h-0.004v-64.75c0-17.88,6.683-34.069,17.481-45.784
	c10.803-11.721,25.727-18.97,42.208-18.97h238.745c16.481,0,31.404,7.249,42.203,18.97c10.799,11.715,17.481,27.904,17.481,45.784
	v64.75h0.004V12941.996z"/>
<path d="M-6768.52,12941.996c-32.962,0-59.688-28.99-59.688-64.75c0-17.88,6.683-34.069,17.486-45.789
	c10.798-11.715,25.722-18.965,42.203-18.965c16.481,0,31.4-7.25,42.203-18.965c10.803-11.715,17.481-27.905,17.481-45.785
	c0-17.885-6.678-34.069-17.481-45.789c-10.803-11.721-25.721-18.965-42.203-18.965c-32.962,0-59.688-28.99-59.688-64.75
	c0-17.88-6.683-34.069-17.481-45.785c-10.798-11.72-25.722-18.97-42.203-18.97h-358.117c-16.481,0-31.4,7.25-42.203,18.97
	c-10.803,11.716-17.481,27.905-17.481,45.785v64.75h-0.004v129.504h0.004v129.504h-0.004v193.586
	c0,35.323,25.831,64.653,58.384,65.407c16.998,0.393,32.42-6.922,43.507-18.95c10.803-11.72,17.481-27.904,17.481-45.785v-129.504
	c0-17.885,6.683-34.069,17.481-45.789c10.803-11.72,25.726-18.965,42.207-18.965h238.745c16.481,0,31.405,7.245,42.203,18.965
	s17.481,27.904,17.481,45.789v128.832c0,35.324,25.832,64.653,58.384,65.407c16.998,0.393,32.42-6.922,43.507-18.95
	c10.803-11.72,17.481-27.904,17.481-45.785v-129.504c0-17.885-6.678-34.069-17.481-45.789
	C-6737.12,12949.241-6752.039,12941.996-6768.52,12941.996z M-6845.689,12793.527c-10.798,11.715-25.722,18.965-42.203,18.965
	h-238.135c-32.565,0-59.602-28.035-60.285-63.357c-0.356-18.437,6.385-35.159,17.468-47.182
	c10.803-11.721,25.722-18.965,42.207-18.965h238.745c16.481,0,31.405,7.244,42.203,18.965c10.798,11.72,17.481,27.904,17.481,45.789
	C-6828.208,12765.622-6834.891,12781.812-6845.689,12793.527z"/>
<path d="M-9595.698,12618.238v388.512c0,17.881-6.683,34.07-17.481,45.785c-10.798,11.715-25.722,18.965-42.203,18.965h-0.004
	c-16.481,0-31.4,7.25-42.203,18.97c-10.803,11.715-17.481,27.904-17.481,45.784c0,17.881-6.678,34.065-17.48,45.785
	s-25.722,18.965-42.208,18.965h-239.34c-32.878,0-59.073-29.111-59.089-64.78c-0.008-17.868-6.688-34.046-17.48-45.754
	c-10.799-11.72-25.723-18.97-42.203-18.97c-32.967,0-59.688-28.989-59.688-64.75c0-17.88,6.678-34.069,17.48-45.789
	c10.804-11.715,25.722-18.965,42.208-18.965c16.48,0,31.404,7.25,42.203,18.965c10.798,11.72,17.48,27.909,17.48,45.789
	c0,35.761,26.722,64.75,59.688,64.75h238.745c16.481,0,31.4-7.25,42.203-18.965s17.48-27.904,17.48-45.785v-388.512
	c0-17.88,6.679-34.065,17.481-45.785s25.722-18.965,42.207-18.965c16.481,0,31.405,7.245,42.203,18.965
	C-9602.381,12584.173-9595.698,12600.358-9595.698,12618.238z"/>
<path d="M-8893.18,12701.958c-10.803-11.721-25.722-18.965-42.203-18.965c-32.966,0-59.688-28.99-59.688-64.75
	c0-17.88-6.683-34.069-17.48-45.79c-10.799-11.715-25.722-18.965-42.203-18.965H-9293.5c-16.485,0-31.404,7.25-42.207,18.965
	c-10.803,11.721-17.481,27.91-17.481,45.79s-6.678,34.064-17.48,45.785c-10.804,11.72-25.723,18.965-42.203,18.965
	c-16.481,0-31.404,7.244-42.208,18.965c-10.798,11.72-17.48,27.904-17.48,45.784v387.845c0,35.323,25.831,64.653,58.384,65.407
	c16.998,0.393,32.42-6.922,43.508-18.95c10.803-11.72,17.48-27.904,17.48-45.789v-129.505c0-17.88,6.683-34.069,17.481-45.784
	c10.803-11.715,25.726-18.965,42.207-18.965h238.745c16.481,0,31.4,7.25,42.203,18.965s17.48,27.904,17.48,45.784v128.837
	c0,35.324,25.832,64.654,58.385,65.407c16.998,0.393,32.42-6.922,43.507-18.95c10.803-11.72,17.481-27.904,17.481-45.789v-388.513
	C-8875.698,12729.862-8882.377,12713.678-8893.18,12701.958z M-9012.552,12793.532c-10.799,11.715-25.722,18.965-42.203,18.965
	h-238.13c-32.561,0-59.596-28.024-60.29-63.341c-0.362-18.439,6.381-35.171,17.468-47.198
	c10.803-11.721,25.722-18.965,42.207-18.965h238.745c16.481,0,31.404,7.244,42.203,18.965c10.798,11.72,17.48,27.904,17.48,45.784
	S-9001.754,12781.812-9012.552,12793.532z"/>
<path d="M-8155.698,12618.233v388.512c0,17.88-6.683,34.07-17.481,45.79c-10.803,11.715-25.726,18.965-42.208,18.965
	s-31.4,7.25-42.203,18.965s-17.481,27.904-17.481,45.784c0,17.886-6.678,34.07-17.48,45.79s-25.722,18.965-42.208,18.965h-238.744
	c-32.963,0-59.685-28.989-59.685-64.755c0-17.88-6.683-34.069-17.48-45.784c-10.804-11.715-25.723-18.965-42.203-18.965l0,0
	c-32.965,0-59.688-28.991-59.688-64.755v-388.512c0-17.88,6.678-34.069,17.48-45.785c10.804-11.715,25.722-18.965,42.208-18.965
	c16.48,0,31.404,7.25,42.203,18.965c10.798,11.716,17.48,27.905,17.48,45.785v388.512c0,35.765,26.718,64.75,59.685,64.755h238.744
	c16.486,0,31.405-7.25,42.208-18.965c10.803-11.72,17.48-27.91,17.48-45.79v-388.512c0-17.88,6.679-34.069,17.481-45.785
	c10.803-11.715,25.722-18.965,42.203-18.965s31.404,7.25,42.208,18.965C-8162.381,12584.164-8155.698,12600.354-8155.698,12618.233z
	"/>
<g>
	<g>
		<g>
			<path style="stroke:#9B9B9B;stroke-width:3;stroke-miterlimit:10;" d="M-6452.725-344.044l-3.2,495.977
				c-0.147,22.827-22.66,43.349-58.956,58.073c-36.286,14.729-86.344,23.656-141.573,23.3c-55.229-0.356-105.287,8.571-141.573,23.3
				c-36.296,14.724-58.809,35.246-58.956,58.073c-0.147,22.828-22.66,43.349-58.956,58.073
				c-36.286,14.729-86.344,23.656-141.573,23.3l-799.983-5.161c-110.458-0.713-199.757-38.298-199.463-83.953
				c0.147-22.827-22.099-43.637-58.202-58.829c-36.093-15.196-86.032-24.768-141.261-25.125
				c-110.458-0.712-199.758-38.298-199.463-83.953c0.147-22.828,22.66-43.349,58.956-58.073
				c36.285-14.729,86.344-23.656,141.573-23.3c55.229,0.356,105.168,9.929,141.261,25.125
				c36.103,15.191,58.349,36.001,58.202,58.829c-0.294,45.655,89.005,83.241,199.463,83.953l799.983,5.161
				c55.229,0.356,105.287-8.571,141.573-23.3c36.296-14.724,58.809-35.246,58.956-58.073l3.2-495.977
				c0.147-22.827,22.66-43.349,58.956-58.073c36.286-14.729,86.345-23.656,141.573-23.299
				c55.229,0.356,105.168,9.929,141.261,25.124C-6474.824-387.682-6452.578-366.872-6452.725-344.044z"/>
			<path style="stroke:#9B9B9B;stroke-width:3;stroke-miterlimit:10;" d="M-6460.137,804.969l-3.199,495.977
				c-0.147,22.827-22.66,43.349-58.956,58.073c-36.286,14.729-86.344,23.656-141.573,23.3
				c-110.458-0.712-199.757-38.298-199.462-83.953l1.066-165.326c0.147-22.828-22.099-43.638-58.202-58.829
				c-36.093-15.195-86.032-24.768-141.261-25.124l-799.983-5.161c-55.229-0.356-105.288,8.571-141.573,23.3
				c-36.296,14.724-58.809,35.246-58.956,58.073l-1.067,165.326c-0.147,22.828-22.66,43.349-58.956,58.073
				c-36.286,14.729-86.345,23.656-141.573,23.299c-110.458-0.712-199.758-38.298-199.463-83.953l3.199-495.977
				c0.147-22.827,22.66-43.349,58.956-58.073c36.286-14.729,86.345-23.656,141.573-23.3c55.229,0.356,105.288-8.571,141.573-23.3
				c36.296-14.724,58.809-35.246,58.956-58.073c0.147-22.828,22.66-43.349,58.956-58.073c36.286-14.729,86.344-23.656,141.573-23.3
				l799.983,5.161c55.229,0.356,105.168,9.929,141.261,25.125c36.103,15.191,58.349,36.001,58.202,58.829
				c-0.294,45.655,89.005,83.24,199.462,83.953c55.229,0.356,105.168,9.929,141.261,25.124
				C-6482.236,761.332-6459.99,782.142-6460.137,804.969z M-6860.128,802.389c0.147-22.827-22.099-43.638-58.202-58.829
				c-36.093-15.196-86.032-24.768-141.261-25.125l-799.983-5.161c-55.229-0.356-105.287,8.571-141.573,23.3
				c-36.296,14.724-58.809,35.246-58.956,58.073c-0.294,45.655,89.005,83.241,199.462,83.953l799.983,5.161
				c55.229,0.356,105.288-8.571,141.573-23.3C-6882.789,845.737-6860.276,825.216-6860.128,802.389z"/>
			<path style="stroke:#9B9B9B;stroke-width:3;stroke-miterlimit:10;" d="M-6465.75,1674.995l-2.133,330.651
				c-0.147,22.827-22.66,43.349-58.956,58.073c-36.286,14.729-86.344,23.656-141.573,23.3c-55.229-0.356-105.288,8.571-141.573,23.3
				c-36.296,14.724-58.809,35.246-58.956,58.073c-0.147,22.828-22.66,43.349-58.956,58.073
				c-36.286,14.729-86.344,23.656-141.573,23.299c-55.229-0.356-105.288,8.571-141.573,23.3
				c-36.296,14.724-58.809,35.246-58.956,58.073c-0.147,22.827-22.66,43.349-58.956,58.073
				c-36.286,14.729-86.344,23.656-141.573,23.3c-110.458-0.713-199.757-38.298-199.462-83.953
				c0.147-22.827-22.099-43.637-58.202-58.829c-36.092-15.195-86.032-24.768-141.261-25.125
				c-110.458-0.712-199.757-38.298-199.462-83.953c0.147-22.828-22.099-43.638-58.202-58.829
				c-36.093-15.195-86.032-24.768-141.261-25.124c-110.458-0.712-199.758-38.298-199.463-83.953l2.133-330.651
				c0.147-22.828,22.66-43.349,58.956-58.073c36.285-14.729,86.345-23.656,141.573-23.3c55.229,0.356,105.168,9.929,141.261,25.125
				c36.103,15.191,58.349,36.001,58.202,58.829l-2.133,330.651c-0.294,45.655,89.005,83.24,199.463,83.953
				c55.229,0.356,105.168,9.929,141.261,25.124c36.103,15.191,58.349,36.001,58.202,58.829
				c-0.294,45.655,89.005,83.241,199.462,83.953c55.229,0.356,105.288-8.571,141.573-23.3
				c36.296-14.724,58.809-35.246,58.956-58.073c0.147-22.828,22.66-43.349,58.956-58.073
				c36.286-14.729,86.345-23.656,141.573-23.299c55.229,0.356,105.288-8.571,141.573-23.3
				c36.296-14.725,58.809-35.246,58.956-58.073l2.133-330.651c0.147-22.827,22.66-43.349,58.956-58.073
				c36.286-14.729,86.344-23.656,141.573-23.3c55.229,0.356,105.168,9.929,141.261,25.125
				C-6487.848,1631.358-6465.602,1652.168-6465.75,1674.995z"/>
			<path style="stroke:#9B9B9B;stroke-width:3;stroke-miterlimit:10;" d="M-6473.068,2809.542l-2.133,330.651
				c-0.147,22.827-22.66,43.349-58.956,58.073c-36.286,14.729-86.344,23.656-141.573,23.3c-55.229-0.356-105.288,8.571-141.573,23.3
				c-36.296,14.724-58.809,35.246-58.956,58.073c-0.147,22.827-22.66,43.349-58.956,58.073
				c-36.286,14.729-86.344,23.656-141.573,23.3l-799.983-5.161c-110.458-0.712-199.757-38.298-199.462-83.953
				c0.147-22.827-22.099-43.637-58.202-58.829c-36.093-15.195-86.033-24.768-141.261-25.124
				c-110.458-0.712-199.757-38.298-199.463-83.953l2.134-330.651c0.146-22.827,22.659-43.349,58.955-58.073
				c36.286-14.729,86.345-23.656,141.573-23.3c55.229,0.356,105.288-8.571,141.574-23.3c36.296-14.724,58.809-35.246,58.956-58.073
				c0.147-22.827,22.66-43.349,58.956-58.073c36.286-14.729,86.345-23.656,141.573-23.3l799.983,5.161
				c55.229,0.356,105.168,9.929,141.261,25.124c36.103,15.191,58.349,36.001,58.202,58.829
				c-0.294,45.655,89.005,83.24,199.463,83.953c55.229,0.356,105.168,9.929,141.261,25.124
				C-6495.167,2765.905-6472.921,2786.715-6473.068,2809.542z M-6873.06,2806.962c0.147-22.827-22.099-43.637-58.202-58.829
				c-36.093-15.196-86.032-24.768-141.261-25.124l-799.983-5.161c-55.229-0.356-105.288,8.571-141.573,23.3
				c-36.296,14.724-58.809,35.246-58.956,58.073l-2.133,330.651c-0.294,45.655,89.005,83.24,199.463,83.953l799.983,5.161
				c55.229,0.356,105.288-8.571,141.573-23.3c36.296-14.724,58.809-35.246,58.956-58.073L-6873.06,2806.962z"/>
			<path style="stroke:#9B9B9B;stroke-width:3;stroke-miterlimit:10;" d="M-6539.629,4046.453
				c36.103,15.191,58.349,36.001,58.202,58.829l-1.066,165.326c-0.147,22.827-22.66,43.349-58.956,58.073
				c-36.286,14.729-86.345,23.656-141.573,23.3c-110.458-0.713-199.757-38.298-199.463-83.953l1.067-165.326
				c0.147-22.827-22.099-43.637-58.202-58.829c-36.093-15.196-86.032-24.768-141.261-25.124l-999.979-6.451l-1.6,247.989
				c-0.147,22.827-22.66,43.349-58.956,58.073c-36.286,14.729-86.345,23.656-141.573,23.3
				c-110.458-0.712-199.757-38.298-199.463-83.953l4.267-661.302c0.146-22.827,22.659-43.349,58.955-58.073
				c36.286-14.729,86.345-23.656,141.573-23.3l1199.976,7.741c55.229,0.356,105.168,9.929,141.261,25.124
				c36.103,15.191,58.349,36.001,58.202,58.829c-0.294,45.655,89.005,83.24,199.463,83.953
				c55.229,0.356,105.168,9.929,141.261,25.124c36.103,15.191,58.349,36.001,58.202,58.829
				c-0.147,22.827-22.66,43.349-58.956,58.073c-36.286,14.729-86.344,23.656-141.573,23.3c-55.229-0.356-105.287,8.571-141.573,23.3
				c-36.296,14.724-58.809,35.246-58.956,58.073c-0.294,45.655,89.005,83.24,199.462,83.953
				C-6625.661,4021.685-6575.722,4031.258-6539.629,4046.453z M-6879.286,3772.05c0.147-22.827-22.099-43.637-58.202-58.829
				c-36.093-15.196-86.032-24.768-141.261-25.124l-799.983-5.161c-55.229-0.356-105.288,8.571-141.573,23.3
				c-36.296,14.724-58.809,35.246-58.956,58.073c-0.294,45.655,89.005,83.24,199.463,83.953l799.983,5.161
				c55.229,0.356,105.288-8.571,141.573-23.3C-6901.946,3815.399-6879.433,3794.878-6879.286,3772.05z"/>
			<path style="stroke:#9B9B9B;stroke-width:3;stroke-miterlimit:10;" d="M-6484.653,4605.392l-4.266,661.303
				c-0.147,22.827-22.66,43.349-58.956,58.073c-36.286,14.729-86.344,23.656-141.573,23.3l-1599.967-10.321
				c-110.458-0.712-199.757-38.298-199.463-83.953l4.267-661.302c0.146-22.828,22.659-43.349,58.956-58.073
				c36.285-14.729,86.344-23.656,141.572-23.3c55.229,0.356,105.169,9.929,141.261,25.125
				c36.103,15.191,58.349,36.001,58.202,58.829l-3.2,495.977c-0.294,45.655,89.005,83.24,199.463,83.953l799.983,5.16
				c55.229,0.356,105.288-8.571,141.573-23.299c36.296-14.725,58.809-35.246,58.956-58.073l3.199-495.977
				c0.147-22.828,22.66-43.349,58.956-58.073c36.286-14.729,86.344-23.656,141.573-23.3c55.229,0.356,105.168,9.929,141.261,25.125
				C-6506.752,4561.755-6484.506,4582.565-6484.653,4605.392z"/>
		</g>
	</g>
</g>
<g>
	<path d="M-8816.146,9114.652c-5.782,13.715,4.372,28.848,19.355,28.848h31.275c48.241,0,72.369,16.734,72.369,50.219
		c0,22.562-8.521,40.328-25.53,53.312c-17.009,12.969-40.807,19.469-71.393,19.469h-76.048c-7.972,0-15.256,4.482-18.797,11.568
		l-34.742,69.51l-16.553,33.438c-52.509,104.312-127.822,156.484-225.989,156.484c-58.966,0-108.419-17.844-148.376-53.484
		c-39.94-35.672-59.927-80.109-59.927-133.328c0-31.328,7.812-61.984,23.388-91.984c15.608-30,36.146-53.875,61.628-71.609
		c41.453-29.062,105.554-43.594,192.271-43.594h104.603c8.551,0,16.246-5.148,19.451-13.014l112.622-276.369
		c5.576-13.683-4.575-28.617-19.451-28.617h-30.546c-48.588,0-72.873-16.734-72.873-50.219c0-22.938,8.488-40.812,25.498-53.594
		s40.98-19.188,71.928-19.188h136.454c46.335,0,69.519,19.094,69.519,57.25c0,14.75-4.017,31.75-12.018,51.016L-8816.146,9114.652z
		 M-9040.345,9296.905c7.214-13.872-2.89-30.405-18.624-30.405h-46.248c-86.811,0-130.217,28.016-130.217,84.078
		c0,18.172,6.08,33.031,18.223,44.594c12.158,11.547,27.908,17.328,47.264,17.328c27.72,0,52.305-10.703,73.755-32.094
		C-9078.982,9363.232-9060.364,9335.398-9040.345,9296.905z M-8686.595,8506.5c22.002,0,40.696,7.625,56.068,22.875
		c15.371,15.25,23.057,33.797,23.057,55.625c0,21.844-7.686,40.375-23.057,55.625c-15.372,15.25-34.066,22.875-56.068,22.875
		c-22.018,0-40.696-7.625-56.068-22.875c-15.371-15.25-23.058-33.781-23.058-55.625c0-21.828,7.687-40.375,23.058-55.625
		C-8727.291,8514.125-8708.612,8506.5-8686.595,8506.5z"/>
	<path d="M-8290.327,8967.879c-5.579,13.684,4.572,28.621,19.45,28.621h31.689c48.099,0,72.164,16.562,72.164,49.656
		c0,22.938-8.583,40.906-25.75,53.875c-17.167,12.984-40.823,19.469-70.968,19.469h-73.077c-24.546,0-43.209-7.137-55.983-21.41
		c-7.141-7.979-19.338-9.049-28.049-2.79c-22.458,16.134-44.305,24.2-65.541,24.2h-65.093c-41.814,0-75.55-14.812-101.206-44.438
		s-38.477-68.406-38.477-116.344c0-72.453,25.199-137.266,75.598-194.453c50.398-57.172,107.381-85.766,170.914-85.766
		c39.014,0,69.601,10.817,91.771,32.438c8.283,8.078,21.466,8.159,29.718,0.048c16.605-16.321,36.618-24.485,60.023-24.485
		c16.758,0,30.743,5.297,41.973,15.875s16.852,23.609,16.852,39.094c0,10.594-3.055,23.25-9.135,37.969l-6.284,15.312
		L-8290.327,8967.879z M-8509.229,8998.5h14.27c31.215,0,51.957-12.641,62.241-37.922l39.973-97.906
		c5.323-12.812,8.001-23.562,8.001-32.25c0-10.188-5.04-19.047-15.088-26.594c-10.064-7.547-22.112-11.328-36.146-11.328
		c-27.719,0-54.666,16.047-80.842,48.109c-26.191,32.062-39.279,65.266-39.279,99.594
		C-8556.099,8979.078-8540.476,8998.5-8509.229,8998.5z"/>
	<path d="M-8012.248,8844.06c-2.203,21.106,25.11,31.568,37.776,14.47l86.803-117.186l10.284-15.281
		c22.081-31.703,46.839-47.562,74.275-47.562c17.891,0,32.554,5.578,43.988,16.703c11.418,11.141,17.135,25.391,17.135,42.75
		c0,18.875-11.418,43.031-34.255,72.469l-211.295,271.219c-23.608,30.578-51.406,45.859-83.378,45.859
		c-27.026,0-48.351-9.328-63.958-28.016s-23.404-44.25-23.404-76.719c0-6.781,0.189-12.25,0.567-16.406l20.538-225.891
		c2.646-30.562,10.914-53.859,24.79-69.906c13.875-16.031,32.602-24.062,56.178-24.062c36.098,0,54.163,18.125,54.163,54.344
		c0,5.281-0.756,14.344-2.268,27.156L-8012.248,8844.06z"/>
	<path d="M-7648.262,8967.892c-5.568,13.682,4.583,28.608,19.456,28.608h33.413c47.91,0,71.865,16.75,71.865,50.219
		c0,22.953-8.473,40.828-25.388,53.609s-40.586,19.172-71.015,19.172h-90.78c-33.578,0-59.99-6.781-79.251-20.375
		c-19.277-13.578-28.9-32.062-28.9-55.469c0-12.453,4-28.297,12.001-47.547l94.292-229.797l6.284-15.859
		c17.514-42.625,45.721-63.953,84.591-63.953c16.001,0,29.798,5.297,41.421,15.875c11.624,10.578,17.435,23.234,17.435,37.969
		c0,12.094-5.15,30.594-15.419,55.531L-7648.262,8967.892z M-7584.511,8506.5c22.002,0,40.697,7.625,56.068,22.875
		c15.372,15.25,23.058,33.797,23.058,55.625c0,21.844-7.686,40.375-23.058,55.625c-15.371,15.25-34.066,22.875-56.068,22.875
		c-22.018,0-40.697-7.625-56.068-22.875s-23.057-33.781-23.057-55.625c0-21.828,7.686-40.375,23.057-55.625
		S-7606.529,8506.5-7584.511,8506.5z"/>
	<path d="M-7345.838,8953.5c-25.767,0-28.867,37.233-3.437,41.354c6.768,1.097,14.359,1.646,22.774,1.646h169.559
		c48.099,0,72.164,16.75,72.164,50.219c0,22.953-8.489,40.828-25.467,53.609s-40.729,19.172-71.251,19.172h-161.558
		c-60.084,0-105.805-14.719-137.178-44.156s-47.044-72.453-47.044-129.078c0-72.828,24.821-135.656,74.495-188.5
		c49.658-52.844,108.75-79.266,177.261-79.266c49.847,0,89.898,12.922,120.153,38.766s45.39,59.875,45.39,102.125
		c0,50.938-20.962,88.656-62.856,113.172c-23.247,13.969-57.911,20.938-103.994,20.938H-7345.838z M-7334.628,8813.722
		c-15.042,12.459-6.116,36.778,13.479,36.778h20.335c41.012,0,60.935-8.766,59.801-26.312c-1.15-19.781-14.332-29.688-39.531-29.688
		C-7301.129,8794.5-7319.157,8800.908-7334.628,8813.722z"/>
	<path d="M-6938.968,8810.5c-8.545,0-16.236,5.141-19.445,12.997l-14.126,34.581c-17.529,42.281-40.382,63.422-68.573,63.422
		c-17.151,0-31.436-5.094-42.87-15.312c-11.434-10.203-17.135-22.859-17.135-37.984c0-8.688,4.189-23.438,12.568-44.234
		l64.557-158.203c15.608-38.172,37.688-57.266,66.258-57.266c28.176,0,45.5,13.297,51.989,39.859l4.567,17.641
		c2.284,9.125,5.717,14.812,10.285,17.094s15.797,3.406,33.704,3.406h133.603c50.021,0,75.046,17.375,75.046,52.094
		c0,45.988-29.163,69.917-87.462,71.787c-4.989,0.16-9.756,2.107-13.436,5.454l-0.371,0.337
		c-60.163,57.469-90.245,101.891-90.245,133.266s17.309,47.062,51.942,47.062h71.944c48.445,0,72.668,16.562,72.668,49.656
		c0,23.328-8.489,41.391-25.451,54.172c-16.978,12.781-40.712,19.172-71.204,19.172h-111.9c-37.925,0-68.92-13.016-93.001-39.047
		s-36.114-59.797-36.114-101.312c0-26.406,6.426-52.047,19.309-76.953c8.65-16.744,21.75-36.044,39.298-57.9
		C-6911.615,8830.651-6921.396,8810.5-6938.968,8810.5L-6938.968,8810.5z"/>
</g>
<g>
	<rect x="-4413.5" y="-13.5" style="fill:none;stroke:#9B9B9B;stroke-width:3;stroke-miterlimit:10;" width="400" height="400"/>
	<path style="fill:none;stroke:#9B9B9B;stroke-width:3;stroke-miterlimit:10;" d="M-4213.5,386.5L-4213.5,386.5
		c-110.457,0-200-89.543-200-200v0c0-110.457,89.543-200,200-200l0,0c110.457,0,200,89.543,200,200v0
		C-4013.5,296.957-4103.043,386.5-4213.5,386.5z"/>
	<rect x="-4413.5" y="386.5" style="fill:none;stroke:#9B9B9B;stroke-width:3;stroke-miterlimit:10;" width="400" height="400"/>
	<path style="fill:none;stroke:#9B9B9B;stroke-width:3;stroke-miterlimit:10;" d="M-4213.5,786.5L-4213.5,786.5
		c-110.457,0-200-89.543-200-200v0c0-110.457,89.543-200,200-200l0,0c110.457,0,200,89.543,200,200v0
		C-4013.5,696.957-4103.043,786.5-4213.5,786.5z"/>
	<rect x="-4413.5" y="786.5" style="fill:none;stroke:#9B9B9B;stroke-width:3;stroke-miterlimit:10;" width="400" height="400"/>
	<path style="fill:none;stroke:#9B9B9B;stroke-width:3;stroke-miterlimit:10;" d="M-4213.5,1586.5h-200v-200
		C-4413.5,1496.96-4323.96,1586.5-4213.5,1586.5z"/>
	<path style="fill:none;stroke:#9B9B9B;stroke-width:3;stroke-miterlimit:10;" d="M-4213.5,1186.5
		c-55.23,0-105.23,22.38-141.42,58.58c-36.2,36.19-58.58,86.19-58.58,141.42v-200H-4213.5z"/>
	<path style="fill:none;stroke:#9B9B9B;stroke-width:3;stroke-miterlimit:10;" d="M-4013.5,1186.5v200
		c0-55.23-22.38-105.23-58.58-141.42c-36.19-36.2-86.19-58.58-141.42-58.58H-4013.5z"/>
	<path style="fill:none;stroke:#9B9B9B;stroke-width:3;stroke-miterlimit:10;" d="M-4013.5,1786.5v200h-400v-400h200
		c55.23,0,105.23,22.38,141.42,58.58C-4035.88,1681.27-4013.5,1731.27-4013.5,1786.5z"/>
	<path style="fill:none;stroke:#9B9B9B;stroke-width:3;stroke-miterlimit:10;" d="M-4213.5,1186.5L-4213.5,1186.5
		c-110.457,0-200-89.543-200-200v0c0-110.457,89.543-200,200-200l0,0c110.457,0,200,89.543,200,200v0
		C-4013.5,1096.957-4103.043,1186.5-4213.5,1186.5z"/>
	<path style="fill:none;stroke:#9B9B9B;stroke-width:3;stroke-miterlimit:10;" d="M-4013.5,1786.5
		c0,55.23-22.38,105.23-58.58,141.42c-36.19,36.2-86.19,58.58-141.42,58.58c-110.46,0-200-89.54-200-200
		c0-55.23,22.38-105.23,58.58-141.42c36.19-36.2,86.19-58.58,141.42-58.58s105.23,22.38,141.42,58.58
		C-4035.88,1681.27-4013.5,1731.27-4013.5,1786.5z"/>
	<rect x="-4013.5" y="-13.5" style="fill:none;stroke:#9B9B9B;stroke-width:3;stroke-miterlimit:10;" width="400" height="400"/>
	<path style="fill:none;stroke:#9B9B9B;stroke-width:3;stroke-miterlimit:10;" d="M-3813.5,386.5L-3813.5,386.5
		c-110.457,0-200-89.543-200-200v0c0-110.457,89.543-200,200-200h0c110.457,0,200,89.543,200,200v0
		C-3613.5,296.957-3703.043,386.5-3813.5,386.5z"/>
	<rect x="-3613.5" y="-13.5" style="fill:none;stroke:#9B9B9B;stroke-width:3;stroke-miterlimit:10;" width="400" height="400"/>
	<path style="fill:none;stroke:#9B9B9B;stroke-width:3;stroke-miterlimit:10;" d="M-3413.5,386.5L-3413.5,386.5
		c-110.457,0-200-89.543-200-200v0c0-110.457,89.543-200,200-200h0c110.457,0,200,89.543,200,200v0
		C-3213.5,296.957-3303.043,386.5-3413.5,386.5z"/>
	<rect x="-3213.5" y="-13.5" style="fill:none;stroke:#9B9B9B;stroke-width:3;stroke-miterlimit:10;" width="400" height="400"/>
	<path style="fill:none;stroke:#9B9B9B;stroke-width:3;stroke-miterlimit:10;" d="M-3013.5,386.5L-3013.5,386.5
		c-110.457,0-200-89.543-200-200v0c0-110.457,89.543-200,200-200h0c110.457,0,200,89.543,200,200v0
		C-2813.5,296.957-2903.043,386.5-3013.5,386.5z"/>
	<path style="fill:none;stroke:#9B9B9B;stroke-width:3;stroke-miterlimit:10;" d="M-2613.5-13.5c-55.23,0-105.23,22.38-141.42,58.58
		c-36.2,36.19-58.58,86.19-58.58,141.42v-200H-2613.5z"/>
	<path style="fill:none;stroke:#9B9B9B;stroke-width:3;stroke-miterlimit:10;" d="M-2413.5-13.5v200
		c0-55.23-22.38-105.23-58.58-141.42c-36.19-36.2-86.19-58.58-141.42-58.58H-2413.5z"/>
	<path style="stroke:#9B9B9B;stroke-width:3;stroke-miterlimit:10;" d="M-2413.5,186.5v1200c0,55.23-22.38,105.23-58.58,141.42
		c-36.19,36.2-86.19,58.58-141.42,58.58s-105.23,22.38-141.42,58.58c-36.2,36.19-58.58,86.19-58.58,141.42
		s-22.38,105.23-58.58,141.42c-36.19,36.2-86.19,58.58-141.42,58.58h-800c-110.46,0-200-89.54-200-200
		c0-55.23-22.38-105.23-58.58-141.42c-36.19-36.2-86.19-58.58-141.42-58.58c-110.46,0-200-89.54-200-200
		c0-55.23,22.38-105.23,58.58-141.42c36.19-36.2,86.19-58.58,141.42-58.58s105.23,22.38,141.42,58.58
		c36.2,36.19,58.58,86.19,58.58,141.42c0,110.46,89.54,200,200,200h800c55.23,0,105.23-22.38,141.42-58.58
		c36.2-36.19,58.58-86.19,58.58-141.42v-1200c0-55.23,22.38-105.23,58.58-141.42c36.19-36.2,86.19-58.58,141.42-58.58
		s105.23,22.38,141.42,58.58C-2435.88,81.27-2413.5,131.27-2413.5,186.5z"/>
	<path style="fill:none;stroke:#9B9B9B;stroke-width:3;stroke-miterlimit:10;" d="M-3813.5,1986.5h-200v-200
		C-4013.5,1896.96-3923.96,1986.5-3813.5,1986.5z"/>
	<rect x="-4013.5" y="386.5" style="fill:none;stroke:#9B9B9B;stroke-width:3;stroke-miterlimit:10;" width="400" height="400"/>
	<path style="fill:none;stroke:#9B9B9B;stroke-width:3;stroke-miterlimit:10;" d="M-3813.5,786.5L-3813.5,786.5
		c-110.457,0-200-89.543-200-200v0c0-110.457,89.543-200,200-200h0c110.457,0,200,89.543,200,200v0
		C-3613.5,696.957-3703.043,786.5-3813.5,786.5z"/>
	<rect x="-3613.5" y="386.5" style="fill:none;stroke:#9B9B9B;stroke-width:3;stroke-miterlimit:10;" width="400" height="400"/>
	<path style="fill:none;stroke:#9B9B9B;stroke-width:3;stroke-miterlimit:10;" d="M-3413.5,786.5L-3413.5,786.5
		c-110.457,0-200-89.543-200-200v0c0-110.457,89.543-200,200-200h0c110.457,0,200,89.543,200,200v0
		C-3213.5,696.957-3303.043,786.5-3413.5,786.5z"/>
	<rect x="-3213.5" y="386.5" style="fill:none;stroke:#9B9B9B;stroke-width:3;stroke-miterlimit:10;" width="400" height="400"/>
	<path style="fill:none;stroke:#9B9B9B;stroke-width:3;stroke-miterlimit:10;" d="M-3013.5,786.5L-3013.5,786.5
		c-110.457,0-200-89.543-200-200v0c0-110.457,89.543-200,200-200h0c110.457,0,200,89.543,200,200v0
		C-2813.5,696.957-2903.043,786.5-3013.5,786.5z"/>
	<rect x="-4013.5" y="786.5" style="fill:none;stroke:#9B9B9B;stroke-width:3;stroke-miterlimit:10;" width="400" height="400"/>
	<path style="fill:none;stroke:#9B9B9B;stroke-width:3;stroke-miterlimit:10;" d="M-3813.5,1186.5L-3813.5,1186.5
		c-110.457,0-200-89.543-200-200v0c0-110.457,89.543-200,200-200h0c110.457,0,200,89.543,200,200v0
		C-3613.5,1096.957-3703.043,1186.5-3813.5,1186.5z"/>
	<rect x="-3613.5" y="786.5" style="fill:none;stroke:#9B9B9B;stroke-width:3;stroke-miterlimit:10;" width="400" height="400"/>
	<path style="fill:none;stroke:#9B9B9B;stroke-width:3;stroke-miterlimit:10;" d="M-3413.5,1186.5L-3413.5,1186.5
		c-110.457,0-200-89.543-200-200v0c0-110.457,89.543-200,200-200h0c110.457,0,200,89.543,200,200v0
		C-3213.5,1096.957-3303.043,1186.5-3413.5,1186.5z"/>
	<rect x="-3213.5" y="786.5" style="fill:none;stroke:#9B9B9B;stroke-width:3;stroke-miterlimit:10;" width="400" height="400"/>
	<path style="fill:none;stroke:#9B9B9B;stroke-width:3;stroke-miterlimit:10;" d="M-3013.5,1186.5L-3013.5,1186.5
		c-110.457,0-200-89.543-200-200v0c0-110.457,89.543-200,200-200h0c110.457,0,200,89.543,200,200v0
		C-2813.5,1096.957-2903.043,1186.5-3013.5,1186.5z"/>
	<path style="fill:none;stroke:#9B9B9B;stroke-width:3;stroke-miterlimit:10;" d="M-2413.5,1386.5v200h-200
		c55.23,0,105.23-22.38,141.42-58.58C-2435.88,1491.73-2413.5,1441.73-2413.5,1386.5z"/>
	<path style="fill:none;stroke:#9B9B9B;stroke-width:3;stroke-miterlimit:10;" d="M-3613.5,1186.5v400h-200
		c-110.46,0-200-89.54-200-200v-200H-3613.5z"/>
	<path style="fill:none;stroke:#9B9B9B;stroke-width:3;stroke-miterlimit:10;" d="M-3613.5,1386.5
		c0,55.23-22.38,105.23-58.58,141.42c-36.19,36.2-86.19,58.58-141.42,58.58c-110.46,0-200-89.54-200-200
		c0-55.23,22.38-105.23,58.58-141.42c36.19-36.2,86.19-58.58,141.42-58.58s105.23,22.38,141.42,58.58
		C-3635.88,1281.27-3613.5,1331.27-3613.5,1386.5z"/>
	<rect x="-3613.5" y="1186.5" style="fill:none;stroke:#9B9B9B;stroke-width:3;stroke-miterlimit:10;" width="400" height="400"/>
	<path style="fill:none;stroke:#9B9B9B;stroke-width:3;stroke-miterlimit:10;" d="M-3413.5,1586.5L-3413.5,1586.5
		c-110.457,0-200-89.543-200-200v0c0-110.457,89.543-200,200-200h0c110.457,0,200,89.543,200,200v0
		C-3213.5,1496.957-3303.043,1586.5-3413.5,1586.5z"/>
	<path style="fill:none;stroke:#9B9B9B;stroke-width:3;stroke-miterlimit:10;" d="M-2813.5,1186.5v200
		c0,55.23-22.38,105.23-58.58,141.42c-36.19,36.2-86.19,58.58-141.42,58.58h-200v-400H-2813.5z"/>
	<path style="fill:none;stroke:#9B9B9B;stroke-width:3;stroke-miterlimit:10;" d="M-2813.5,1386.5
		c0,55.23-22.38,105.23-58.58,141.42c-36.19,36.2-86.19,58.58-141.42,58.58c-110.46,0-200-89.54-200-200
		c0-55.23,22.38-105.23,58.58-141.42c36.19-36.2,86.19-58.58,141.42-58.58s105.23,22.38,141.42,58.58
		C-2835.88,1281.27-2813.5,1331.27-2813.5,1386.5z"/>
	<path style="fill:none;stroke:#9B9B9B;stroke-width:3;stroke-miterlimit:10;" d="M-2413.5,1586.5v400h-400v-200
		c0-55.23,22.38-105.23,58.58-141.42c36.19-36.2,86.19-58.58,141.42-58.58H-2413.5z"/>
	<path style="fill:none;stroke:#9B9B9B;stroke-width:3;stroke-miterlimit:10;" d="M-2413.5,1786.5
		c0,55.23-22.38,105.23-58.58,141.42c-36.19,36.2-86.19,58.58-141.42,58.58c-110.46,0-200-89.54-200-200
		c0-55.23,22.38-105.23,58.58-141.42c36.19-36.2,86.19-58.58,141.42-58.58s105.23,22.38,141.42,58.58
		C-2435.88,1681.27-2413.5,1731.27-2413.5,1786.5z"/>
	<path style="fill:none;stroke:#9B9B9B;stroke-width:3;stroke-miterlimit:10;" d="M-2813.5,1786.5v200h-200
		c55.23,0,105.23-22.38,141.42-58.58C-2835.88,1891.73-2813.5,1841.73-2813.5,1786.5z"/>
	<path style="fill:none;stroke:#9B9B9B;stroke-width:3;stroke-miterlimit:10;" d="M-4013.5,2381.5v200
		c0,55.23-22.38,105.23-58.58,141.42c-36.19,36.2-86.19,58.58-141.42,58.58h-200v-400H-4013.5z"/>
	<path style="fill:none;stroke:#9B9B9B;stroke-width:3;stroke-miterlimit:10;" d="M-4013.5,2581.5
		c0,55.23-22.38,105.23-58.58,141.42c-36.19,36.2-86.19,58.58-141.42,58.58c-110.46,0-200-89.54-200-200
		c0-55.23,22.38-105.23,58.58-141.42c36.19-36.2,86.19-58.58,141.42-58.58s105.23,22.38,141.42,58.58
		C-4035.88,2476.27-4013.5,2526.27-4013.5,2581.5z"/>
	<path style="fill:none;stroke:#9B9B9B;stroke-width:3;stroke-miterlimit:10;" d="M-4213.5,2781.5
		c-55.23,0-105.23,22.38-141.42,58.58c-36.2,36.19-58.58,86.19-58.58,141.42v-200H-4213.5z"/>
	<path style="fill:none;stroke:#9B9B9B;stroke-width:3;stroke-miterlimit:10;" d="M-4213.5,4381.5h-200v-200
		C-4413.5,4291.96-4323.96,4381.5-4213.5,4381.5z"/>
	<path style="fill:none;stroke:#9B9B9B;stroke-width:3;stroke-miterlimit:10;" d="M-4013.5,4181.5v200h-200
		c55.23,0,105.23-22.38,141.42-58.58C-4035.88,4286.73-4013.5,4236.73-4013.5,4181.5z"/>
	<path style="stroke:#9B9B9B;stroke-width:3;stroke-miterlimit:10;" d="M-2472.08,2840.08c-36.19-36.2-86.19-58.58-141.42-58.58
		c-110.46,0-200-89.54-200-200c0-55.23-22.38-105.23-58.58-141.42c-36.19-36.2-86.19-58.58-141.42-58.58h-800
		c-55.23,0-105.23,22.38-141.42,58.58c-36.2,36.19-58.58,86.19-58.58,141.42s-22.38,105.23-58.58,141.42
		c-36.19,36.2-86.19,58.58-141.42,58.58s-105.23,22.38-141.42,58.58c-36.2,36.19-58.58,86.19-58.58,141.42v1200
		c0,110.46,89.54,200,200,200c55.23,0,105.23-22.38,141.42-58.58c36.2-36.19,58.58-86.19,58.58-141.42v-400
		c0-55.23,22.38-105.23,58.58-141.42c36.19-36.2,86.19-58.58,141.42-58.58h800c55.23,0,105.23,22.38,141.42,58.58
		c36.2,36.19,58.58,86.19,58.58,141.42v400c0,110.46,89.54,200,200,200c55.23,0,105.23-22.38,141.42-58.58
		c36.2-36.19,58.58-86.19,58.58-141.42v-1200C-2413.5,2926.27-2435.88,2876.27-2472.08,2840.08z M-2872.08,3122.92
		c-36.19,36.2-86.19,58.58-141.42,58.58h-800c-110.46,0-200-89.54-200-200c0-55.23,22.38-105.23,58.58-141.42
		c36.19-36.2,86.19-58.58,141.42-58.58h800c55.23,0,105.23,22.38,141.42,58.58c36.2,36.19,58.58,86.19,58.58,141.42
		S-2835.88,3086.73-2872.08,3122.92z"/>
	<path style="fill:none;stroke:#9B9B9B;stroke-width:3;stroke-miterlimit:10;" d="M-2413.5,2781.5v200
		c0-55.23-22.38-105.23-58.58-141.42c-36.19-36.2-86.19-58.58-141.42-58.58H-2413.5z"/>
	<path style="fill:none;stroke:#9B9B9B;stroke-width:3;stroke-miterlimit:10;" d="M-3813.5,2381.5
		c-55.23,0-105.23,22.38-141.42,58.58c-36.2,36.19-58.58,86.19-58.58,141.42v-200H-3813.5z"/>
	<path style="fill:none;stroke:#9B9B9B;stroke-width:3;stroke-miterlimit:10;" d="M-2813.5,2381.5v200
		c0-55.23-22.38-105.23-58.58-141.42c-36.19-36.2-86.19-58.58-141.42-58.58H-2813.5z"/>
	<path style="fill:none;stroke:#9B9B9B;stroke-width:3;stroke-miterlimit:10;" d="M-2413.5,2381.5v400h-200
		c-110.46,0-200-89.54-200-200v-200H-2413.5z"/>
	<path style="fill:none;stroke:#9B9B9B;stroke-width:3;stroke-miterlimit:10;" d="M-2413.5,2581.5
		c0,55.23-22.38,105.23-58.58,141.42c-36.19,36.2-86.19,58.58-141.42,58.58c-110.46,0-200-89.54-200-200
		c0-55.23,22.38-105.23,58.58-141.42c36.19-36.2,86.19-58.58,141.42-58.58s105.23,22.38,141.42,58.58
		C-2435.88,2476.27-2413.5,2526.27-2413.5,2581.5z"/>
	<rect x="-4013.5" y="3981.5" style="fill:none;stroke:#9B9B9B;stroke-width:3;stroke-miterlimit:10;" width="400" height="400"/>
	<path style="fill:none;stroke:#9B9B9B;stroke-width:3;stroke-miterlimit:10;" d="M-3813.5,4381.5L-3813.5,4381.5
		c-110.457,0-200-89.543-200-200l0,0c0-110.457,89.543-200,200-200h0c110.457,0,200,89.543,200,200l0,0
		C-3613.5,4291.957-3703.043,4381.5-3813.5,4381.5z"/>
	<path style="fill:none;stroke:#9B9B9B;stroke-width:3;stroke-miterlimit:10;" d="M-3613.5,2781.5v400h-200
		c-110.46,0-200-89.54-200-200c0-55.23,22.38-105.23,58.58-141.42c36.19-36.2,86.19-58.58,141.42-58.58H-3613.5z"/>
	<path style="fill:none;stroke:#9B9B9B;stroke-width:3;stroke-miterlimit:10;" d="M-3613.5,2981.5
		c0,55.23-22.38,105.23-58.58,141.42c-36.19,36.2-86.19,58.58-141.42,58.58c-110.46,0-200-89.54-200-200
		c0-55.23,22.38-105.23,58.58-141.42c36.19-36.2,86.19-58.58,141.42-58.58s105.23,22.38,141.42,58.58
		C-3635.88,2876.27-3613.5,2926.27-3613.5,2981.5z"/>
	<rect x="-3613.5" y="2781.5" style="fill:none;stroke:#9B9B9B;stroke-width:3;stroke-miterlimit:10;" width="400" height="400"/>
	<path style="fill:none;stroke:#9B9B9B;stroke-width:3;stroke-miterlimit:10;" d="M-3413.5,3181.5L-3413.5,3181.5
		c-110.457,0-200-89.543-200-200v0c0-110.457,89.543-200,200-200h0c110.457,0,200,89.543,200,200v0
		C-3213.5,3091.957-3303.043,3181.5-3413.5,3181.5z"/>
	<path style="fill:none;stroke:#9B9B9B;stroke-width:3;stroke-miterlimit:10;" d="M-2813.5,2981.5
		c0,55.23-22.38,105.23-58.58,141.42c-36.19,36.2-86.19,58.58-141.42,58.58h-200v-400h200c55.23,0,105.23,22.38,141.42,58.58
		C-2835.88,2876.27-2813.5,2926.27-2813.5,2981.5z"/>
	<path style="fill:none;stroke:#9B9B9B;stroke-width:3;stroke-miterlimit:10;" d="M-2813.5,2981.5
		c0,55.23-22.38,105.23-58.58,141.42c-36.19,36.2-86.19,58.58-141.42,58.58c-110.46,0-200-89.54-200-200
		c0-55.23,22.38-105.23,58.58-141.42c36.19-36.2,86.19-58.58,141.42-58.58s105.23,22.38,141.42,58.58
		C-2835.88,2876.27-2813.5,2926.27-2813.5,2981.5z"/>
	<path style="fill:none;stroke:#9B9B9B;stroke-width:3;stroke-miterlimit:10;" d="M-3613.5,3581.5v400h-400v-200
		c0-55.23,22.38-105.23,58.58-141.42c36.19-36.2,86.19-58.58,141.42-58.58H-3613.5z"/>
	<path style="fill:none;stroke:#9B9B9B;stroke-width:3;stroke-miterlimit:10;" d="M-3613.5,3781.5
		c0,55.23-22.38,105.23-58.58,141.42c-36.19,36.2-86.19,58.58-141.42,58.58c-110.46,0-200-89.54-200-200
		c0-55.23,22.38-105.23,58.58-141.42c36.19-36.2,86.19-58.58,141.42-58.58s105.23,22.38,141.42,58.58
		C-3635.88,3676.27-3613.5,3726.27-3613.5,3781.5z"/>
	<rect x="-3613.5" y="3581.5" style="fill:none;stroke:#9B9B9B;stroke-width:3;stroke-miterlimit:10;" width="400" height="400"/>
	<path style="fill:none;stroke:#9B9B9B;stroke-width:3;stroke-miterlimit:10;" d="M-3413.5,3981.5L-3413.5,3981.5
		c-110.457,0-200-89.543-200-200v0c0-110.457,89.543-200,200-200h0c110.457,0,200,89.543,200,200v0
		C-3213.5,3891.957-3303.043,3981.5-3413.5,3981.5z"/>
	<path style="fill:none;stroke:#9B9B9B;stroke-width:3;stroke-miterlimit:10;" d="M-2813.5,3781.5v200h-400v-400h200
		c55.23,0,105.23,22.38,141.42,58.58C-2835.88,3676.27-2813.5,3726.27-2813.5,3781.5z"/>
	<path style="fill:none;stroke:#9B9B9B;stroke-width:3;stroke-miterlimit:10;" d="M-2813.5,3781.5
		c0,55.23-22.38,105.23-58.58,141.42c-36.19,36.2-86.19,58.58-141.42,58.58c-110.46,0-200-89.54-200-200
		c0-55.23,22.38-105.23,58.58-141.42c36.19-36.2,86.19-58.58,141.42-58.58s105.23,22.38,141.42,58.58
		C-2835.88,3676.27-2813.5,3726.27-2813.5,3781.5z"/>
	<path style="fill:none;stroke:#9B9B9B;stroke-width:3;stroke-miterlimit:10;" d="M-2613.5,4381.5h-200v-200
		C-2813.5,4291.96-2723.96,4381.5-2613.5,4381.5z"/>
	<path style="fill:none;stroke:#9B9B9B;stroke-width:3;stroke-miterlimit:10;" d="M-2413.5,4181.5v200h-200
		c55.23,0,105.23-22.38,141.42-58.58C-2435.88,4286.73-2413.5,4236.73-2413.5,4181.5z"/>
	<rect x="-3613.5" y="3981.5" style="fill:none;stroke:#9B9B9B;stroke-width:3;stroke-miterlimit:10;" width="400" height="400"/>
	<path style="fill:none;stroke:#9B9B9B;stroke-width:3;stroke-miterlimit:10;" d="M-3413.5,4381.5L-3413.5,4381.5
		c-110.457,0-200-89.543-200-200l0,0c0-110.457,89.543-200,200-200h0c110.457,0,200,89.543,200,200l0,0
		C-3213.5,4291.957-3303.043,4381.5-3413.5,4381.5z"/>
	<rect x="-3213.5" y="3981.5" style="fill:none;stroke:#9B9B9B;stroke-width:3;stroke-miterlimit:10;" width="400" height="400"/>
	<path style="fill:none;stroke:#9B9B9B;stroke-width:3;stroke-miterlimit:10;" d="M-3013.5,4381.5L-3013.5,4381.5
		c-110.457,0-200-89.543-200-200l0,0c0-110.457,89.543-200,200-200h0c110.457,0,200,89.543,200,200l0,0
		C-2813.5,4291.957-2903.043,4381.5-3013.5,4381.5z"/>
	<path style="fill:none;stroke:#9B9B9B;stroke-width:3;stroke-miterlimit:10;" d="M-4218.5,4791.5
		c-55.23,0-105.23,22.38-141.42,58.58c-36.2,36.19-58.58,86.19-58.58,141.42v-200H-4218.5z"/>
	<path style="fill:none;stroke:#9B9B9B;stroke-width:3;stroke-miterlimit:10;" d="M-4018.5,4791.5v200
		c0-55.23-22.38-105.23-58.58-141.42c-36.19-36.2-86.19-58.58-141.42-58.58H-4018.5z"/>
	<path style="fill:none;stroke:#9B9B9B;stroke-width:3;stroke-miterlimit:10;" d="M-4218.5,5991.5h-200v-200
		C-4418.5,5901.96-4328.96,5991.5-4218.5,5991.5z"/>
	<path style="fill:none;stroke:#9B9B9B;stroke-width:3;stroke-miterlimit:10;" d="M-4018.5,6191.5v200h-400v-400h200
		c55.23,0,105.23,22.38,141.42,58.58C-4040.88,6086.27-4018.5,6136.27-4018.5,6191.5z"/>
	<rect x="-4418.5" y="6391.5" style="fill:none;stroke:#9B9B9B;stroke-width:3;stroke-miterlimit:10;" width="400" height="400"/>
	<path style="fill:none;stroke:#9B9B9B;stroke-width:3;stroke-miterlimit:10;" d="M-4018.5,6191.5
		c0,55.23-22.38,105.23-58.58,141.42c-36.19,36.2-86.19,58.58-141.42,58.58c-110.46,0-200-89.54-200-200
		c0-55.23,22.38-105.23,58.58-141.42c36.19-36.2,86.19-58.58,141.42-58.58s105.23,22.38,141.42,58.58
		C-4040.88,6086.27-4018.5,6136.27-4018.5,6191.5z"/>
	<path style="fill:none;stroke:#9B9B9B;stroke-width:3;stroke-miterlimit:10;" d="M-4218.5,6791.5L-4218.5,6791.5
		c-110.457,0-200-89.543-200-200l0,0c0-110.457,89.543-200,200-200l0,0c110.457,0,200,89.543,200,200l0,0
		C-4018.5,6701.957-4108.043,6791.5-4218.5,6791.5z"/>
	<rect x="-4018.5" y="4791.5" style="fill:none;stroke:#9B9B9B;stroke-width:3;stroke-miterlimit:10;" width="400" height="400"/>
	<path style="fill:none;stroke:#9B9B9B;stroke-width:3;stroke-miterlimit:10;" d="M-3818.5,5191.5L-3818.5,5191.5
		c-110.457,0-200-89.543-200-200l0,0c0-110.457,89.543-200,200-200h0c110.457,0,200,89.543,200,200l0,0
		C-3618.5,5101.957-3708.043,5191.5-3818.5,5191.5z"/>
	<rect x="-3618.5" y="4791.5" style="fill:none;stroke:#9B9B9B;stroke-width:3;stroke-miterlimit:10;" width="400" height="400"/>
	<path style="fill:none;stroke:#9B9B9B;stroke-width:3;stroke-miterlimit:10;" d="M-3418.5,5191.5L-3418.5,5191.5
		c-110.457,0-200-89.543-200-200l0,0c0-110.457,89.543-200,200-200h0c110.457,0,200,89.543,200,200l0,0
		C-3218.5,5101.957-3308.043,5191.5-3418.5,5191.5z"/>
	<rect x="-3218.5" y="4791.5" style="fill:none;stroke:#9B9B9B;stroke-width:3;stroke-miterlimit:10;" width="400" height="400"/>
	<path style="fill:none;stroke:#9B9B9B;stroke-width:3;stroke-miterlimit:10;" d="M-3018.5,5191.5L-3018.5,5191.5
		c-110.457,0-200-89.543-200-200l0,0c0-110.457,89.543-200,200-200h0c110.457,0,200,89.543,200,200l0,0
		C-2818.5,5101.957-2908.043,5191.5-3018.5,5191.5z"/>
	<path style="fill:none;stroke:#9B9B9B;stroke-width:3;stroke-miterlimit:10;" d="M-2618.5,4791.5
		c-55.23,0-105.23,22.38-141.42,58.58c-36.2,36.19-58.58,86.19-58.58,141.42v-200H-2618.5z"/>
	<path style="fill:none;stroke:#9B9B9B;stroke-width:3;stroke-miterlimit:10;" d="M-2418.5,4791.5v200
		c0-55.23-22.38-105.23-58.58-141.42c-36.19-36.2-86.19-58.58-141.42-58.58H-2418.5z"/>
	<path style="stroke:#9B9B9B;stroke-width:3;stroke-miterlimit:10;" d="M-2418.5,4991.5v800c0,55.23-22.38,105.23-58.58,141.42
		c-36.19,36.2-86.19,58.58-141.42,58.58s-105.23,22.38-141.42,58.58c-36.2,36.19-58.58,86.19-58.58,141.42
		s-22.38,105.23-58.58,141.42c-36.19,36.2-86.19,58.58-141.42,58.58s-105.23,22.38-141.42,58.58
		c-36.2,36.19-58.58,86.19-58.58,141.42s-22.38,105.23-58.58,141.42c-36.19,36.2-86.19,58.58-141.42,58.58
		c-110.46,0-200-89.54-200-200c0-55.23-22.38-105.23-58.58-141.42c-36.19-36.2-86.19-58.58-141.42-58.58
		c-110.46,0-200-89.54-200-200c0-55.23-22.38-105.23-58.58-141.42c-36.19-36.2-86.19-58.58-141.42-58.58
		c-110.46,0-200-89.54-200-200v-800c0-55.23,22.38-105.23,58.58-141.42c36.19-36.2,86.19-58.58,141.42-58.58
		s105.23,22.38,141.42,58.58c36.2,36.19,58.58,86.19,58.58,141.42v800c0,110.46,89.54,200,200,200
		c55.23,0,105.23,22.38,141.42,58.58c36.2,36.19,58.58,86.19,58.58,141.42c0,110.46,89.54,200,200,200
		c55.23,0,105.23-22.38,141.42-58.58c36.2-36.19,58.58-86.19,58.58-141.42s22.38-105.23,58.58-141.42
		c36.19-36.2,86.19-58.58,141.42-58.58s105.23-22.38,141.42-58.58c36.2-36.19,58.58-86.19,58.58-141.42v-800
		c0-55.23,22.38-105.23,58.58-141.42c36.19-36.2,86.19-58.58,141.42-58.58s105.23,22.38,141.42,58.58
		C-2440.88,4886.27-2418.5,4936.27-2418.5,4991.5z"/>
	<path style="fill:none;stroke:#9B9B9B;stroke-width:3;stroke-miterlimit:10;" d="M-3618.5,6591.5v200h-400v-400h200
		c55.23,0,105.23,22.38,141.42,58.58C-3640.88,6486.27-3618.5,6536.27-3618.5,6591.5z"/>
	<path style="fill:none;stroke:#9B9B9B;stroke-width:3;stroke-miterlimit:10;" d="M-3618.5,6591.5
		c0,55.23-22.38,105.23-58.58,141.42c-36.19,36.2-86.19,58.58-141.42,58.58c-110.46,0-200-89.54-200-200
		c0-55.23,22.38-105.23,58.58-141.42c36.19-36.2,86.19-58.58,141.42-58.58s105.23,22.38,141.42,58.58
		C-3640.88,6486.27-3618.5,6536.27-3618.5,6591.5z"/>
	<rect x="-4018.5" y="5191.5" style="fill:none;stroke:#9B9B9B;stroke-width:3;stroke-miterlimit:10;" width="400" height="400"/>
	<path style="fill:none;stroke:#9B9B9B;stroke-width:3;stroke-miterlimit:10;" d="M-3818.5,5591.5L-3818.5,5591.5
		c-110.457,0-200-89.543-200-200l0,0c0-110.457,89.543-200,200-200h0c110.457,0,200,89.543,200,200l0,0
		C-3618.5,5501.957-3708.043,5591.5-3818.5,5591.5z"/>
	<rect x="-3618.5" y="5191.5" style="fill:none;stroke:#9B9B9B;stroke-width:3;stroke-miterlimit:10;" width="400" height="400"/>
	<path style="fill:none;stroke:#9B9B9B;stroke-width:3;stroke-miterlimit:10;" d="M-3418.5,5591.5L-3418.5,5591.5
		c-110.457,0-200-89.543-200-200l0,0c0-110.457,89.543-200,200-200h0c110.457,0,200,89.543,200,200l0,0
		C-3218.5,5501.957-3308.043,5591.5-3418.5,5591.5z"/>
	<rect x="-3218.5" y="5191.5" style="fill:none;stroke:#9B9B9B;stroke-width:3;stroke-miterlimit:10;" width="400" height="400"/>
	<path style="fill:none;stroke:#9B9B9B;stroke-width:3;stroke-miterlimit:10;" d="M-3018.5,5591.5L-3018.5,5591.5
		c-110.457,0-200-89.543-200-200l0,0c0-110.457,89.543-200,200-200h0c110.457,0,200,89.543,200,200l0,0
		C-2818.5,5501.957-2908.043,5591.5-3018.5,5591.5z"/>
	<path style="fill:none;stroke:#9B9B9B;stroke-width:3;stroke-miterlimit:10;" d="M-2418.5,5791.5v200h-200
		c55.23,0,105.23-22.38,141.42-58.58C-2440.88,5896.73-2418.5,5846.73-2418.5,5791.5z"/>
	<path style="fill:none;stroke:#9B9B9B;stroke-width:3;stroke-miterlimit:10;" d="M-3618.5,5591.5v400h-200
		c-110.46,0-200-89.54-200-200v-200H-3618.5z"/>
	<path style="fill:none;stroke:#9B9B9B;stroke-width:3;stroke-miterlimit:10;" d="M-3618.5,5791.5
		c0,55.23-22.38,105.23-58.58,141.42c-36.19,36.2-86.19,58.58-141.42,58.58c-110.46,0-200-89.54-200-200
		c0-55.23,22.38-105.23,58.58-141.42c36.19-36.2,86.19-58.58,141.42-58.58s105.23,22.38,141.42,58.58
		C-3640.88,5686.27-3618.5,5736.27-3618.5,5791.5z"/>
	<rect x="-3618.5" y="5591.5" style="fill:none;stroke:#9B9B9B;stroke-width:3;stroke-miterlimit:10;" width="400" height="400"/>
	<path style="fill:none;stroke:#9B9B9B;stroke-width:3;stroke-miterlimit:10;" d="M-3418.5,5991.5L-3418.5,5991.5
		c-110.457,0-200-89.543-200-200l0,0c0-110.457,89.543-200,200-200h0c110.457,0,200,89.543,200,200l0,0
		C-3218.5,5901.957-3308.043,5991.5-3418.5,5991.5z"/>
	<path style="fill:none;stroke:#9B9B9B;stroke-width:3;stroke-miterlimit:10;" d="M-2818.5,5591.5v200
		c0,55.23-22.38,105.23-58.58,141.42c-36.19,36.2-86.19,58.58-141.42,58.58h-200v-400H-2818.5z"/>
	<path style="fill:none;stroke:#9B9B9B;stroke-width:3;stroke-miterlimit:10;" d="M-2818.5,5791.5
		c0,55.23-22.38,105.23-58.58,141.42c-36.19,36.2-86.19,58.58-141.42,58.58c-110.46,0-200-89.54-200-200
		c0-55.23,22.38-105.23,58.58-141.42c36.19-36.2,86.19-58.58,141.42-58.58s105.23,22.38,141.42,58.58
		C-2840.88,5686.27-2818.5,5736.27-2818.5,5791.5z"/>
	<path style="fill:none;stroke:#9B9B9B;stroke-width:3;stroke-miterlimit:10;" d="M-2418.5,5991.5v400h-400v-200
		c0-55.23,22.38-105.23,58.58-141.42c36.19-36.2,86.19-58.58,141.42-58.58H-2418.5z"/>
	<path style="fill:none;stroke:#9B9B9B;stroke-width:3;stroke-miterlimit:10;" d="M-2418.5,6191.5
		c0,55.23-22.38,105.23-58.58,141.42c-36.19,36.2-86.19,58.58-141.42,58.58c-110.46,0-200-89.54-200-200
		c0-55.23,22.38-105.23,58.58-141.42c36.19-36.2,86.19-58.58,141.42-58.58s105.23,22.38,141.42,58.58
		C-2440.88,6086.27-2418.5,6136.27-2418.5,6191.5z"/>
	<path style="fill:none;stroke:#9B9B9B;stroke-width:3;stroke-miterlimit:10;" d="M-3818.5,6391.5h-200v-200
		C-4018.5,6301.96-3928.96,6391.5-3818.5,6391.5z"/>
	<path style="fill:none;stroke:#9B9B9B;stroke-width:3;stroke-miterlimit:10;" d="M-3618.5,5991.5v200
		c0-55.23-22.38-105.23-58.58-141.42c-36.19-36.2-86.19-58.58-141.42-58.58H-3618.5z"/>
	<path style="fill:none;stroke:#9B9B9B;stroke-width:3;stroke-miterlimit:10;" d="M-3218.5,5991.5v200
		c0,55.23-22.38,105.23-58.58,141.42c-36.19,36.2-86.19,58.58-141.42,58.58c-110.46,0-200-89.54-200-200v-200H-3218.5z"/>
	<path style="fill:none;stroke:#9B9B9B;stroke-width:3;stroke-miterlimit:10;" d="M-3218.5,6191.5
		c0,55.23-22.38,105.23-58.58,141.42c-36.19,36.2-86.19,58.58-141.42,58.58c-110.46,0-200-89.54-200-200
		c0-55.23,22.38-105.23,58.58-141.42c36.19-36.2,86.19-58.58,141.42-58.58s105.23,22.38,141.42,58.58
		C-3240.88,6086.27-3218.5,6136.27-3218.5,6191.5z"/>
	<path style="fill:none;stroke:#9B9B9B;stroke-width:3;stroke-miterlimit:10;" d="M-3018.5,5991.5
		c-55.23,0-105.23,22.38-141.42,58.58c-36.2,36.19-58.58,86.19-58.58,141.42v-200H-3018.5z"/>
	<path style="fill:none;stroke:#9B9B9B;stroke-width:3;stroke-miterlimit:10;" d="M-2818.5,6191.5v200h-200
		c55.23,0,105.23-22.38,141.42-58.58C-2840.88,6296.73-2818.5,6246.73-2818.5,6191.5z"/>
	<rect x="-2818.5" y="6391.5" style="fill:none;stroke:#9B9B9B;stroke-width:3;stroke-miterlimit:10;" width="400" height="400"/>
	<path style="fill:none;stroke:#9B9B9B;stroke-width:3;stroke-miterlimit:10;" d="M-2618.5,6791.5L-2618.5,6791.5
		c-110.457,0-200-89.543-200-200l0,0c0-110.457,89.543-200,200-200h0c110.457,0,200,89.543,200,200l0,0
		C-2418.5,6701.957-2508.043,6791.5-2618.5,6791.5z"/>
	<path style="fill:none;stroke:#9B9B9B;stroke-width:3;stroke-miterlimit:10;" d="M-3418.5,6791.5h-200v-200
		C-3618.5,6701.96-3528.96,6791.5-3418.5,6791.5z"/>
	<path style="fill:none;stroke:#9B9B9B;stroke-width:3;stroke-miterlimit:10;" d="M-3218.5,6591.5v200h-200
		c55.23,0,105.23-22.38,141.42-58.58C-3240.88,6696.73-3218.5,6646.73-3218.5,6591.5z"/>
	<path style="fill:none;stroke:#9B9B9B;stroke-width:3;stroke-miterlimit:10;" d="M-2818.5,6391.5v400h-400v-200
		c0-55.23,22.38-105.23,58.58-141.42c36.19-36.2,86.19-58.58,141.42-58.58H-2818.5z"/>
	<path style="fill:none;stroke:#9B9B9B;stroke-width:3;stroke-miterlimit:10;" d="M-2818.5,6591.5
		c0,55.23-22.38,105.23-58.58,141.42c-36.19,36.2-86.19,58.58-141.42,58.58c-110.46,0-200-89.54-200-200
		c0-55.23,22.38-105.23,58.58-141.42c36.19-36.2,86.19-58.58,141.42-58.58s105.23,22.38,141.42,58.58
		C-2840.88,6486.27-2818.5,6536.27-2818.5,6591.5z"/>
	<path style="fill:none;stroke:#9B9B9B;stroke-width:3;stroke-miterlimit:10;" d="M-4008.5,7186.5v200
		c0,55.23-22.38,105.23-58.58,141.42c-36.19,36.2-86.19,58.58-141.42,58.58h-200v-400H-4008.5z"/>
	<path style="fill:none;stroke:#9B9B9B;stroke-width:3;stroke-miterlimit:10;" d="M-4008.5,7386.5
		c0,55.23-22.38,105.23-58.58,141.42c-36.19,36.2-86.19,58.58-141.42,58.58c-110.46,0-200-89.54-200-200
		c0-55.23,22.38-105.23,58.58-141.42c36.19-36.2,86.19-58.58,141.42-58.58s105.23,22.38,141.42,58.58
		C-4030.88,7281.27-4008.5,7331.27-4008.5,7386.5z"/>
	<path style="fill:none;stroke:#9B9B9B;stroke-width:3;stroke-miterlimit:10;" d="M-4208.5,7586.5
		c-55.23,0-105.23,22.38-141.42,58.58c-36.2,36.19-58.58,86.19-58.58,141.42v-200H-4208.5z"/>
	<path style="fill:none;stroke:#9B9B9B;stroke-width:3;stroke-miterlimit:10;" d="M-4208.5,8786.5h-200v-200
		C-4408.5,8696.96-4318.96,8786.5-4208.5,8786.5z"/>
	<path style="fill:none;stroke:#9B9B9B;stroke-width:3;stroke-miterlimit:10;" d="M-4008.5,8986.5v200h-400v-400h200
		c55.23,0,105.23,22.38,141.42,58.58C-4030.88,8881.27-4008.5,8931.27-4008.5,8986.5z"/>
	<path style="fill:none;stroke:#9B9B9B;stroke-width:3;stroke-miterlimit:10;" d="M-4008.5,8986.5
		c0,55.23-22.38,105.23-58.58,141.42c-36.19,36.2-86.19,58.58-141.42,58.58c-110.46,0-200-89.54-200-200
		c0-55.23,22.38-105.23,58.58-141.42c36.19-36.2,86.19-58.58,141.42-58.58s105.23,22.38,141.42,58.58
		C-4030.88,8881.27-4008.5,8931.27-4008.5,8986.5z"/>
	<path style="fill:none;stroke:#9B9B9B;stroke-width:3;stroke-miterlimit:10;" d="M-2408.5,7586.5v200
		c0-55.23-22.38-105.23-58.58-141.42c-36.19-36.2-86.19-58.58-141.42-58.58H-2408.5z"/>
	<path style="fill:none;stroke:#9B9B9B;stroke-width:3;stroke-miterlimit:10;" d="M-3808.5,7186.5
		c-55.23,0-105.23,22.38-141.42,58.58c-36.2,36.19-58.58,86.19-58.58,141.42v-200H-3808.5z"/>
	<path style="stroke:#9B9B9B;stroke-width:3;stroke-miterlimit:10;" d="M-2467.08,7645.08c-36.19-36.2-86.19-58.58-141.42-58.58
		c-110.46,0-200-89.54-200-200c0-55.23-22.38-105.23-58.58-141.42c-36.19-36.2-86.19-58.58-141.42-58.58h-800
		c-55.23,0-105.23,22.38-141.42,58.58c-36.2,36.19-58.58,86.19-58.58,141.42s-22.38,105.23-58.58,141.42
		c-36.19,36.2-86.19,58.58-141.42,58.58s-105.23,22.38-141.42,58.58c-36.2,36.19-58.58,86.19-58.58,141.42v800
		c0,110.46,89.54,200,200,200c55.23,0,105.23,22.38,141.42,58.58c36.2,36.189,58.58,86.189,58.58,141.42c0,110.46,89.54,200,200,200
		h800c55.23,0,105.23-22.38,141.42-58.58c36.2-36.189,58.58-86.189,58.58-141.42s22.38-105.23,58.58-141.42
		c36.19-36.2,86.19-58.58,141.42-58.58s105.23-22.38,141.42-58.58c36.2-36.189,58.58-86.189,58.58-141.42v-800
		C-2408.5,7731.27-2430.88,7681.27-2467.08,7645.08z M-2808.5,8586.5c0,55.23-22.38,105.23-58.58,141.42
		c-36.19,36.2-86.19,58.58-141.42,58.58h-800c-110.46,0-200-89.54-200-200v-800c0-55.23,22.38-105.23,58.58-141.42
		c36.19-36.2,86.19-58.58,141.42-58.58h800c55.23,0,105.23,22.38,141.42,58.58c36.2,36.19,58.58,86.19,58.58,141.42V8586.5z"/>
	<path style="fill:none;stroke:#9B9B9B;stroke-width:3;stroke-miterlimit:10;" d="M-2808.5,7186.5v200
		c0-55.23-22.38-105.23-58.58-141.42c-36.19-36.2-86.19-58.58-141.42-58.58H-2808.5z"/>
	<path style="fill:none;stroke:#9B9B9B;stroke-width:3;stroke-miterlimit:10;" d="M-2408.5,7186.5v400h-200
		c-110.46,0-200-89.54-200-200v-200H-2408.5z"/>
	<path style="fill:none;stroke:#9B9B9B;stroke-width:3;stroke-miterlimit:10;" d="M-2408.5,7386.5
		c0,55.23-22.38,105.23-58.58,141.42c-36.19,36.2-86.19,58.58-141.42,58.58c-110.46,0-200-89.54-200-200
		c0-55.23,22.38-105.23,58.58-141.42c36.19-36.2,86.19-58.58,141.42-58.58s105.23,22.38,141.42,58.58
		C-2430.88,7281.27-2408.5,7331.27-2408.5,7386.5z"/>
	<path style="fill:none;stroke:#9B9B9B;stroke-width:3;stroke-miterlimit:10;" d="M-3808.5,9186.5h-200v-200
		C-4008.5,9096.96-3918.96,9186.5-3808.5,9186.5z"/>
	<path style="fill:none;stroke:#9B9B9B;stroke-width:3;stroke-miterlimit:10;" d="M-3608.5,7586.5v400h-400v-200
		c0-55.23,22.38-105.23,58.58-141.42c36.19-36.2,86.19-58.58,141.42-58.58H-3608.5z"/>
	<path style="fill:none;stroke:#9B9B9B;stroke-width:3;stroke-miterlimit:10;" d="M-3608.5,7786.5
		c0,55.23-22.38,105.23-58.58,141.42c-36.19,36.2-86.19,58.58-141.42,58.58c-110.46,0-200-89.54-200-200
		c0-55.23,22.38-105.23,58.58-141.42c36.19-36.2,86.19-58.58,141.42-58.58s105.23,22.38,141.42,58.58
		C-3630.88,7681.27-3608.5,7731.27-3608.5,7786.5z"/>
	<rect x="-3608.5" y="7586.5" style="fill:none;stroke:#9B9B9B;stroke-width:3;stroke-miterlimit:10;" width="400" height="400"/>
	<path style="fill:none;stroke:#9B9B9B;stroke-width:3;stroke-miterlimit:10;" d="M-3408.5,7986.5L-3408.5,7986.5
		c-110.457,0-200-89.543-200-200l0,0c0-110.457,89.543-200,200-200h0c110.457,0,200,89.543,200,200l0,0
		C-3208.5,7896.957-3298.043,7986.5-3408.5,7986.5z"/>
	<path style="fill:none;stroke:#9B9B9B;stroke-width:3;stroke-miterlimit:10;" d="M-2808.5,7786.5v200h-400v-400h200
		c55.23,0,105.23,22.38,141.42,58.58C-2830.88,7681.27-2808.5,7731.27-2808.5,7786.5z"/>
	<path style="fill:none;stroke:#9B9B9B;stroke-width:3;stroke-miterlimit:10;" d="M-2808.5,7786.5
		c0,55.23-22.38,105.23-58.58,141.42c-36.19,36.2-86.19,58.58-141.42,58.58c-110.46,0-200-89.54-200-200
		c0-55.23,22.38-105.23,58.58-141.42c36.19-36.2,86.19-58.58,141.42-58.58s105.23,22.38,141.42,58.58
		C-2830.88,7681.27-2808.5,7731.27-2808.5,7786.5z"/>
	<rect x="-4008.5" y="7986.5" style="fill:none;stroke:#9B9B9B;stroke-width:3;stroke-miterlimit:10;" width="400" height="400"/>
	<path style="fill:none;stroke:#9B9B9B;stroke-width:3;stroke-miterlimit:10;" d="M-3808.5,8386.5L-3808.5,8386.5
		c-110.457,0-200-89.543-200-200l0,0c0-110.457,89.543-200,200-200h0c110.457,0,200,89.543,200,200l0,0
		C-3608.5,8296.957-3698.043,8386.5-3808.5,8386.5z"/>
	<rect x="-3608.5" y="7986.5" style="fill:none;stroke:#9B9B9B;stroke-width:3;stroke-miterlimit:10;" width="400" height="400"/>
	<path style="fill:none;stroke:#9B9B9B;stroke-width:3;stroke-miterlimit:10;" d="M-3408.5,8386.5L-3408.5,8386.5
		c-110.457,0-200-89.543-200-200l0,0c0-110.457,89.543-200,200-200h0c110.457,0,200,89.543,200,200l0,0
		C-3208.5,8296.957-3298.043,8386.5-3408.5,8386.5z"/>
	<rect x="-3208.5" y="7986.5" style="fill:none;stroke:#9B9B9B;stroke-width:3;stroke-miterlimit:10;" width="400" height="400"/>
	<path style="fill:none;stroke:#9B9B9B;stroke-width:3;stroke-miterlimit:10;" d="M-3008.5,8386.5L-3008.5,8386.5
		c-110.457,0-200-89.543-200-200l0,0c0-110.457,89.543-200,200-200h0c110.457,0,200,89.543,200,200l0,0
		C-2808.5,8296.957-2898.043,8386.5-3008.5,8386.5z"/>
	<path style="fill:none;stroke:#9B9B9B;stroke-width:3;stroke-miterlimit:10;" d="M-2408.5,8586.5v200h-200
		c55.23,0,105.23-22.38,141.42-58.58C-2430.88,8691.73-2408.5,8641.73-2408.5,8586.5z"/>
	<path style="fill:none;stroke:#9B9B9B;stroke-width:3;stroke-miterlimit:10;" d="M-3608.5,8386.5v400h-200
		c-110.46,0-200-89.54-200-200v-200H-3608.5z"/>
	<path style="fill:none;stroke:#9B9B9B;stroke-width:3;stroke-miterlimit:10;" d="M-3608.5,8586.5
		c0,55.23-22.38,105.23-58.58,141.42c-36.19,36.2-86.19,58.58-141.42,58.58c-110.46,0-200-89.54-200-200
		c0-55.23,22.38-105.23,58.58-141.42c36.19-36.2,86.19-58.58,141.42-58.58s105.23,22.38,141.42,58.58
		C-3630.88,8481.27-3608.5,8531.27-3608.5,8586.5z"/>
	<rect x="-3608.5" y="8386.5" style="fill:none;stroke:#9B9B9B;stroke-width:3;stroke-miterlimit:10;" width="400" height="400"/>
	<path style="fill:none;stroke:#9B9B9B;stroke-width:3;stroke-miterlimit:10;" d="M-3408.5,8786.5L-3408.5,8786.5
		c-110.457,0-200-89.543-200-200l0,0c0-110.457,89.543-200,200-200h0c110.457,0,200,89.543,200,200l0,0
		C-3208.5,8696.957-3298.043,8786.5-3408.5,8786.5z"/>
	<path style="fill:none;stroke:#9B9B9B;stroke-width:3;stroke-miterlimit:10;" d="M-2808.5,8386.5v200
		c0,55.23-22.38,105.23-58.58,141.42c-36.19,36.2-86.19,58.58-141.42,58.58h-200v-400H-2808.5z"/>
	<path style="fill:none;stroke:#9B9B9B;stroke-width:3;stroke-miterlimit:10;" d="M-2808.5,8586.5
		c0,55.23-22.38,105.23-58.58,141.42c-36.19,36.2-86.19,58.58-141.42,58.58c-110.46,0-200-89.54-200-200
		c0-55.23,22.38-105.23,58.58-141.42c36.19-36.2,86.19-58.58,141.42-58.58s105.23,22.38,141.42,58.58
		C-2830.88,8481.27-2808.5,8531.27-2808.5,8586.5z"/>
	<path style="fill:none;stroke:#9B9B9B;stroke-width:3;stroke-miterlimit:10;" d="M-2408.5,8786.5v400h-400v-200
		c0-55.23,22.38-105.23,58.58-141.42c36.19-36.2,86.19-58.58,141.42-58.58H-2408.5z"/>
	<path style="fill:none;stroke:#9B9B9B;stroke-width:3;stroke-miterlimit:10;" d="M-2408.5,8986.5
		c0,55.23-22.38,105.23-58.58,141.42c-36.19,36.2-86.19,58.58-141.42,58.58c-110.46,0-200-89.54-200-200
		c0-55.23,22.38-105.23,58.58-141.42c36.19-36.2,86.19-58.58,141.42-58.58s105.23,22.38,141.42,58.58
		C-2430.88,8881.27-2408.5,8931.27-2408.5,8986.5z"/>
	<path style="fill:none;stroke:#9B9B9B;stroke-width:3;stroke-miterlimit:10;" d="M-2808.5,8986.5v200h-200
		c55.23,0,105.23-22.38,141.42-58.58C-2830.88,9091.73-2808.5,9041.73-2808.5,8986.5z"/>
	<path style="fill:none;stroke:#9B9B9B;stroke-width:3;stroke-miterlimit:10;" d="M-4208.5,9586.5
		c-55.23,0-105.23,22.38-141.42,58.58c-36.2,36.189-58.58,86.189-58.58,141.42v-200H-4208.5z"/>
	<path style="stroke:#9B9B9B;stroke-width:3;stroke-miterlimit:10;" d="M-2608.5,10786.5c-110.46,0-200-89.54-200-200
		c0-55.23,22.38-105.23,58.58-141.42c36.19-36.2,86.19-58.58,141.42-58.58s105.23-22.38,141.42-58.58
		c36.2-36.189,58.58-86.189,58.58-141.42s-22.38-105.23-58.58-141.42c-36.19-36.2-86.19-58.58-141.42-58.58
		c-110.46,0-200-89.54-200-200c0-55.23-22.38-105.23-58.58-141.42c-36.19-36.2-86.19-58.58-141.42-58.58h-1200
		c-55.23,0-105.23,22.38-141.42,58.58c-36.2,36.189-58.58,86.189-58.58,141.42v1600c0,110.46,89.54,200,200,200
		c55.23,0,105.23-22.38,141.42-58.58c36.2-36.189,58.58-86.189,58.58-141.42v-600h1000c55.23,0,105.23,22.38,141.42,58.58
		c36.2,36.189,58.58,86.189,58.58,141.42v400c0,110.46,89.54,200,200,200c55.23,0,105.23-22.38,141.42-58.58
		c36.2-36.189,58.58-86.189,58.58-141.42v-400c0-55.23-22.38-105.23-58.58-141.42C-2503.27,10808.88-2553.27,10786.5-2608.5,10786.5
		z M-2867.08,10327.92c-36.19,36.2-86.19,58.58-141.42,58.58h-800c-110.46,0-200-89.54-200-200c0-55.23,22.38-105.23,58.58-141.42
		c36.19-36.2,86.19-58.58,141.42-58.58h800c55.23,0,105.23,22.38,141.42,58.58c36.2,36.189,58.58,86.189,58.58,141.42
		S-2830.88,10291.73-2867.08,10327.92z"/>
	<path style="fill:none;stroke:#9B9B9B;stroke-width:3;stroke-miterlimit:10;" d="M-4208.5,11586.5h-200v-200
		C-4408.5,11496.96-4318.96,11586.5-4208.5,11586.5z"/>
	<path style="fill:none;stroke:#9B9B9B;stroke-width:3;stroke-miterlimit:10;" d="M-4008.5,11386.5v200h-200
		c55.23,0,105.23-22.38,141.42-58.58C-4030.88,11491.73-4008.5,11441.73-4008.5,11386.5z"/>
	<path style="fill:none;stroke:#9B9B9B;stroke-width:3;stroke-miterlimit:10;" d="M-2408.5,9986.5v200
		c0-55.23-22.38-105.23-58.58-141.42c-36.19-36.2-86.19-58.58-141.42-58.58H-2408.5z"/>
	<path style="fill:none;stroke:#9B9B9B;stroke-width:3;stroke-miterlimit:10;" d="M-2408.5,10186.5v200h-200
		c55.23,0,105.23-22.38,141.42-58.58C-2430.88,10291.73-2408.5,10241.73-2408.5,10186.5z"/>
	<path style="fill:none;stroke:#9B9B9B;stroke-width:3;stroke-miterlimit:10;" d="M-2808.5,9586.5v200
		c0-55.23-22.38-105.23-58.58-141.42c-36.19-36.2-86.19-58.58-141.42-58.58H-2808.5z"/>
	<path style="fill:none;stroke:#9B9B9B;stroke-width:3;stroke-miterlimit:10;" d="M-2408.5,9586.5v400h-200
		c-110.46,0-200-89.54-200-200v-200H-2408.5z"/>
	<path style="fill:none;stroke:#9B9B9B;stroke-width:3;stroke-miterlimit:10;" d="M-2408.5,9786.5
		c0,55.23-22.38,105.23-58.58,141.42c-36.19,36.2-86.19,58.58-141.42,58.58c-110.46,0-200-89.54-200-200
		c0-55.23,22.38-105.23,58.58-141.42c36.19-36.2,86.19-58.58,141.42-58.58s105.23,22.38,141.42,58.58
		C-2430.88,9681.27-2408.5,9731.27-2408.5,9786.5z"/>
	<rect x="-4008.5" y="11186.5" style="fill:none;stroke:#9B9B9B;stroke-width:3;stroke-miterlimit:10;" width="400" height="400"/>
	<path style="fill:none;stroke:#9B9B9B;stroke-width:3;stroke-miterlimit:10;" d="M-3808.5,11586.5L-3808.5,11586.5
		c-110.457,0-200-89.543-200-200l0,0c0-110.457,89.543-200,200-200h0c110.457,0,200,89.543,200,200l0,0
		C-3608.5,11496.957-3698.043,11586.5-3808.5,11586.5z"/>
	<path style="fill:none;stroke:#9B9B9B;stroke-width:3;stroke-miterlimit:10;" d="M-3608.5,9986.5v400h-200
		c-110.46,0-200-89.54-200-200c0-55.23,22.38-105.23,58.58-141.42c36.19-36.2,86.19-58.58,141.42-58.58H-3608.5z"/>
	<path style="fill:none;stroke:#9B9B9B;stroke-width:3;stroke-miterlimit:10;" d="M-3608.5,10186.5
		c0,55.23-22.38,105.23-58.58,141.42c-36.19,36.2-86.19,58.58-141.42,58.58c-110.46,0-200-89.54-200-200
		c0-55.23,22.38-105.23,58.58-141.42c36.19-36.2,86.19-58.58,141.42-58.58s105.23,22.38,141.42,58.58
		C-3630.88,10081.27-3608.5,10131.27-3608.5,10186.5z"/>
	<rect x="-3608.5" y="9986.5" style="fill:none;stroke:#9B9B9B;stroke-width:3;stroke-miterlimit:10;" width="400" height="400"/>
	<path style="fill:none;stroke:#9B9B9B;stroke-width:3;stroke-miterlimit:10;" d="M-3408.5,10386.5L-3408.5,10386.5
		c-110.457,0-200-89.543-200-200l0,0c0-110.457,89.543-200,200-200h0c110.457,0,200,89.543,200,200l0,0
		C-3208.5,10296.957-3298.043,10386.5-3408.5,10386.5z"/>
	<path style="fill:none;stroke:#9B9B9B;stroke-width:3;stroke-miterlimit:10;" d="M-2808.5,10186.5
		c0,55.23-22.38,105.23-58.58,141.42c-36.19,36.2-86.19,58.58-141.42,58.58h-200v-400h200c55.23,0,105.23,22.38,141.42,58.58
		C-2830.88,10081.27-2808.5,10131.27-2808.5,10186.5z"/>
	<path style="fill:none;stroke:#9B9B9B;stroke-width:3;stroke-miterlimit:10;" d="M-2808.5,10186.5
		c0,55.23-22.38,105.23-58.58,141.42c-36.19,36.2-86.19,58.58-141.42,58.58c-110.46,0-200-89.54-200-200
		c0-55.23,22.38-105.23,58.58-141.42c36.19-36.2,86.19-58.58,141.42-58.58s105.23,22.38,141.42,58.58
		C-2830.88,10081.27-2808.5,10131.27-2808.5,10186.5z"/>
	<path style="fill:none;stroke:#9B9B9B;stroke-width:3;stroke-miterlimit:10;" d="M-2408.5,10386.5v400h-200
		c-110.46,0-200-89.54-200-200c0-55.23,22.38-105.23,58.58-141.42c36.19-36.2,86.19-58.58,141.42-58.58H-2408.5z"/>
	<path style="fill:none;stroke:#9B9B9B;stroke-width:3;stroke-miterlimit:10;" d="M-2408.5,10586.5
		c0,55.23-22.38,105.23-58.58,141.42c-36.19,36.2-86.19,58.58-141.42,58.58c-110.46,0-200-89.54-200-200
		c0-55.23,22.38-105.23,58.58-141.42c36.19-36.2,86.19-58.58,141.42-58.58s105.23,22.38,141.42,58.58
		C-2430.88,10481.27-2408.5,10531.27-2408.5,10586.5z"/>
	<path style="fill:none;stroke:#9B9B9B;stroke-width:3;stroke-miterlimit:10;" d="M-2408.5,10786.5v200
		c0-55.23-22.38-105.23-58.58-141.42c-36.19-36.2-86.19-58.58-141.42-58.58H-2408.5z"/>
	<rect x="-4008.5" y="10786.5" style="fill:none;stroke:#9B9B9B;stroke-width:3;stroke-miterlimit:10;" width="400" height="400"/>
	<path style="fill:none;stroke:#9B9B9B;stroke-width:3;stroke-miterlimit:10;" d="M-3808.5,11186.5L-3808.5,11186.5
		c-110.457,0-200-89.543-200-200l0,0c0-110.457,89.543-200,200-200h0c110.457,0,200,89.543,200,200l0,0
		C-3608.5,11096.957-3698.043,11186.5-3808.5,11186.5z"/>
	<rect x="-3608.5" y="10786.5" style="fill:none;stroke:#9B9B9B;stroke-width:3;stroke-miterlimit:10;" width="400" height="400"/>
	<path style="fill:none;stroke:#9B9B9B;stroke-width:3;stroke-miterlimit:10;" d="M-3408.5,11186.5L-3408.5,11186.5
		c-110.457,0-200-89.543-200-200l0,0c0-110.457,89.543-200,200-200h0c110.457,0,200,89.543,200,200l0,0
		C-3208.5,11096.957-3298.043,11186.5-3408.5,11186.5z"/>
	<path style="fill:none;stroke:#9B9B9B;stroke-width:3;stroke-miterlimit:10;" d="M-2808.5,10986.5v200h-400v-400h200
		c55.23,0,105.23,22.38,141.42,58.58C-2830.88,10881.27-2808.5,10931.27-2808.5,10986.5z"/>
	<path style="fill:none;stroke:#9B9B9B;stroke-width:3;stroke-miterlimit:10;" d="M-2808.5,10986.5
		c0,55.23-22.38,105.23-58.58,141.42c-36.19,36.2-86.19,58.58-141.42,58.58c-110.46,0-200-89.54-200-200
		c0-55.23,22.38-105.23,58.58-141.42c36.19-36.2,86.19-58.58,141.42-58.58s105.23,22.38,141.42,58.58
		C-2830.88,10881.27-2808.5,10931.27-2808.5,10986.5z"/>
	<path style="fill:none;stroke:#9B9B9B;stroke-width:3;stroke-miterlimit:10;" d="M-2608.5,11586.5h-200v-200
		C-2808.5,11496.96-2718.96,11586.5-2608.5,11586.5z"/>
	<path style="fill:none;stroke:#9B9B9B;stroke-width:3;stroke-miterlimit:10;" d="M-2408.5,11386.5v200h-200
		c55.23,0,105.23-22.38,141.42-58.58C-2430.88,11491.73-2408.5,11441.73-2408.5,11386.5z"/>
	<rect x="-3608.5" y="11186.5" style="fill:none;stroke:#9B9B9B;stroke-width:3;stroke-miterlimit:10;" width="400" height="400"/>
	<path style="fill:none;stroke:#9B9B9B;stroke-width:3;stroke-miterlimit:10;" d="M-3408.5,11586.5L-3408.5,11586.5
		c-110.457,0-200-89.543-200-200l0,0c0-110.457,89.543-200,200-200h0c110.457,0,200,89.543,200,200l0,0
		C-3208.5,11496.957-3298.043,11586.5-3408.5,11586.5z"/>
	<rect x="-3208.5" y="11186.5" style="fill:none;stroke:#9B9B9B;stroke-width:3;stroke-miterlimit:10;" width="400" height="400"/>
	<path style="fill:none;stroke:#9B9B9B;stroke-width:3;stroke-miterlimit:10;" d="M-3008.5,11586.5L-3008.5,11586.5
		c-110.457,0-200-89.543-200-200l0,0c0-110.457,89.543-200,200-200h0c110.457,0,200,89.543,200,200l0,0
		C-2808.5,11496.957-2898.043,11586.5-3008.5,11586.5z"/>
	<path style="fill:none;stroke:#9B9B9B;stroke-width:3;stroke-miterlimit:10;" d="M-4208.5,11991.5
		c-55.23,0-105.23,22.38-141.42,58.58c-36.2,36.189-58.58,86.189-58.58,141.42v-200H-4208.5z"/>
	<path style="fill:none;stroke:#9B9B9B;stroke-width:3;stroke-miterlimit:10;" d="M-4008.5,11991.5v200
		c0-55.23-22.38-105.23-58.58-141.42c-36.19-36.2-86.19-58.58-141.42-58.58H-4008.5z"/>
	<path style="fill:none;stroke:#9B9B9B;stroke-width:3;stroke-miterlimit:10;" d="M-4208.5,13991.5h-200v-200
		C-4408.5,13901.96-4318.96,13991.5-4208.5,13991.5z"/>
	<rect x="-4008.5" y="11991.5" style="fill:none;stroke:#9B9B9B;stroke-width:3;stroke-miterlimit:10;" width="400" height="400"/>
	<path style="fill:none;stroke:#9B9B9B;stroke-width:3;stroke-miterlimit:10;" d="M-3808.5,12391.5L-3808.5,12391.5
		c-110.457,0-200-89.543-200-200l0,0c0-110.457,89.543-200,200-200h0c110.457,0,200,89.543,200,200l0,0
		C-3608.5,12301.957-3698.043,12391.5-3808.5,12391.5z"/>
	<rect x="-3608.5" y="11991.5" style="fill:none;stroke:#9B9B9B;stroke-width:3;stroke-miterlimit:10;" width="400" height="400"/>
	<path style="fill:none;stroke:#9B9B9B;stroke-width:3;stroke-miterlimit:10;" d="M-3408.5,12391.5L-3408.5,12391.5
		c-110.457,0-200-89.543-200-200l0,0c0-110.457,89.543-200,200-200h0c110.457,0,200,89.543,200,200l0,0
		C-3208.5,12301.957-3298.043,12391.5-3408.5,12391.5z"/>
	<rect x="-3208.5" y="11991.5" style="fill:none;stroke:#9B9B9B;stroke-width:3;stroke-miterlimit:10;" width="400" height="400"/>
	<path style="fill:none;stroke:#9B9B9B;stroke-width:3;stroke-miterlimit:10;" d="M-3008.5,12391.5L-3008.5,12391.5
		c-110.457,0-200-89.543-200-200l0,0c0-110.457,89.543-200,200-200h0c110.457,0,200,89.543,200,200l0,0
		C-2808.5,12301.957-2898.043,12391.5-3008.5,12391.5z"/>
	<path style="fill:none;stroke:#9B9B9B;stroke-width:3;stroke-miterlimit:10;" d="M-2608.5,11991.5
		c-55.23,0-105.23,22.38-141.42,58.58c-36.2,36.189-58.58,86.189-58.58,141.42v-200H-2608.5z"/>
	<path style="fill:none;stroke:#9B9B9B;stroke-width:3;stroke-miterlimit:10;" d="M-2408.5,11991.5v200
		c0-55.23-22.38-105.23-58.58-141.42c-36.19-36.2-86.19-58.58-141.42-58.58H-2408.5z"/>
	<path style="stroke:#9B9B9B;stroke-width:3;stroke-miterlimit:10;" d="M-2408.5,12191.5v1600c0,55.23-22.38,105.23-58.58,141.42
		c-36.19,36.2-86.19,58.58-141.42,58.58h-1600c-110.46,0-200-89.54-200-200v-1600c0-55.23,22.38-105.23,58.58-141.42
		c36.19-36.2,86.19-58.58,141.42-58.58s105.23,22.38,141.42,58.58c36.2,36.189,58.58,86.189,58.58,141.42v1200
		c0,110.46,89.54,200,200,200h800c55.23,0,105.23-22.38,141.42-58.58c36.2-36.189,58.58-86.189,58.58-141.42v-1200
		c0-55.23,22.38-105.23,58.58-141.42c36.19-36.2,86.19-58.58,141.42-58.58s105.23,22.38,141.42,58.58
		C-2430.88,12086.27-2408.5,12136.27-2408.5,12191.5z"/>
	<rect x="-4008.5" y="12391.5" style="fill:none;stroke:#9B9B9B;stroke-width:3;stroke-miterlimit:10;" width="400" height="400"/>
	<path style="fill:none;stroke:#9B9B9B;stroke-width:3;stroke-miterlimit:10;" d="M-3808.5,12791.5L-3808.5,12791.5
		c-110.457,0-200-89.543-200-200l0,0c0-110.457,89.543-200,200-200h0c110.457,0,200,89.543,200,200l0,0
		C-3608.5,12701.957-3698.043,12791.5-3808.5,12791.5z"/>
	<rect x="-3608.5" y="12391.5" style="fill:none;stroke:#9B9B9B;stroke-width:3;stroke-miterlimit:10;" width="400" height="400"/>
	<path style="fill:none;stroke:#9B9B9B;stroke-width:3;stroke-miterlimit:10;" d="M-3408.5,12791.5L-3408.5,12791.5
		c-110.457,0-200-89.543-200-200l0,0c0-110.457,89.543-200,200-200h0c110.457,0,200,89.543,200,200l0,0
		C-3208.5,12701.957-3298.043,12791.5-3408.5,12791.5z"/>
	<rect x="-3208.5" y="12391.5" style="fill:none;stroke:#9B9B9B;stroke-width:3;stroke-miterlimit:10;" width="400" height="400"/>
	<path style="fill:none;stroke:#9B9B9B;stroke-width:3;stroke-miterlimit:10;" d="M-3008.5,12791.5L-3008.5,12791.5
		c-110.457,0-200-89.543-200-200l0,0c0-110.457,89.543-200,200-200h0c110.457,0,200,89.543,200,200l0,0
		C-2808.5,12701.957-2898.043,12791.5-3008.5,12791.5z"/>
	<rect x="-4008.5" y="12791.5" style="fill:none;stroke:#9B9B9B;stroke-width:3;stroke-miterlimit:10;" width="400" height="400"/>
	<path style="fill:none;stroke:#9B9B9B;stroke-width:3;stroke-miterlimit:10;" d="M-3808.5,13191.5L-3808.5,13191.5
		c-110.457,0-200-89.543-200-200l0,0c0-110.457,89.543-200,200-200h0c110.457,0,200,89.543,200,200l0,0
		C-3608.5,13101.957-3698.043,13191.5-3808.5,13191.5z"/>
	<rect x="-3608.5" y="12791.5" style="fill:none;stroke:#9B9B9B;stroke-width:3;stroke-miterlimit:10;" width="400" height="400"/>
	<path style="fill:none;stroke:#9B9B9B;stroke-width:3;stroke-miterlimit:10;" d="M-3408.5,13191.5L-3408.5,13191.5
		c-110.457,0-200-89.543-200-200l0,0c0-110.457,89.543-200,200-200h0c110.457,0,200,89.543,200,200l0,0
		C-3208.5,13101.957-3298.043,13191.5-3408.5,13191.5z"/>
	<rect x="-3208.5" y="12791.5" style="fill:none;stroke:#9B9B9B;stroke-width:3;stroke-miterlimit:10;" width="400" height="400"/>
	<path style="fill:none;stroke:#9B9B9B;stroke-width:3;stroke-miterlimit:10;" d="M-3008.5,13191.5L-3008.5,13191.5
		c-110.457,0-200-89.543-200-200l0,0c0-110.457,89.543-200,200-200h0c110.457,0,200,89.543,200,200l0,0
		C-2808.5,13101.957-2898.043,13191.5-3008.5,13191.5z"/>
	<path style="fill:none;stroke:#9B9B9B;stroke-width:3;stroke-miterlimit:10;" d="M-3608.5,13191.5v400h-200
		c-110.46,0-200-89.54-200-200v-200H-3608.5z"/>
	<path style="fill:none;stroke:#9B9B9B;stroke-width:3;stroke-miterlimit:10;" d="M-3608.5,13391.5
		c0,55.23-22.38,105.23-58.58,141.42c-36.19,36.2-86.19,58.58-141.42,58.58c-110.46,0-200-89.54-200-200
		c0-55.23,22.38-105.23,58.58-141.42c36.19-36.2,86.19-58.58,141.42-58.58s105.23,22.38,141.42,58.58
		C-3630.88,13286.27-3608.5,13336.27-3608.5,13391.5z"/>
	<rect x="-3608.5" y="13191.5" style="fill:none;stroke:#9B9B9B;stroke-width:3;stroke-miterlimit:10;" width="400" height="400"/>
	<path style="fill:none;stroke:#9B9B9B;stroke-width:3;stroke-miterlimit:10;" d="M-3408.5,13591.5L-3408.5,13591.5
		c-110.457,0-200-89.543-200-200l0,0c0-110.457,89.543-200,200-200h0c110.457,0,200,89.543,200,200l0,0
		C-3208.5,13501.957-3298.043,13591.5-3408.5,13591.5z"/>
	<path style="fill:none;stroke:#9B9B9B;stroke-width:3;stroke-miterlimit:10;" d="M-2808.5,13191.5v200
		c0,55.23-22.38,105.23-58.58,141.42c-36.19,36.2-86.19,58.58-141.42,58.58h-200v-400H-2808.5z"/>
	<path style="fill:none;stroke:#9B9B9B;stroke-width:3;stroke-miterlimit:10;" d="M-2808.5,13391.5
		c0,55.23-22.38,105.23-58.58,141.42c-36.19,36.2-86.19,58.58-141.42,58.58c-110.46,0-200-89.54-200-200
		c0-55.23,22.38-105.23,58.58-141.42c36.19-36.2,86.19-58.58,141.42-58.58s105.23,22.38,141.42,58.58
		C-2830.88,13286.27-2808.5,13336.27-2808.5,13391.5z"/>
	<path style="fill:none;stroke:#9B9B9B;stroke-width:3;stroke-miterlimit:10;" d="M-2408.5,13791.5v200h-200
		c55.23,0,105.23-22.38,141.42-58.58C-2430.88,13896.73-2408.5,13846.73-2408.5,13791.5z"/>
</g>
<path style="stroke:#9B9B9B;stroke-width:3;stroke-miterlimit:10;" d="M2001.5,201.5v1200c0,55.23-22.38,105.23-58.58,141.42
	c-36.19,36.2-86.19,58.58-141.42,58.58s-105.23,22.38-141.42,58.58c-36.2,36.19-58.58,86.19-58.58,141.42
	s-22.38,105.23-58.58,141.42c-36.19,36.2-86.19,58.58-141.42,58.58h-800c-110.46,0-200-89.54-200-200
	c0-55.23-22.38-105.23-58.58-141.42c-36.19-36.2-86.19-58.58-141.42-58.58c-110.46,0-200-89.54-200-200
	c0-55.23,22.38-105.23,58.58-141.42c36.19-36.2,86.19-58.58,141.42-58.58s105.23,22.38,141.42,58.58
	c36.2,36.19,58.58,86.19,58.58,141.42c0,110.46,89.54,200,200,200h800c55.23,0,105.23-22.38,141.42-58.58
	c36.2-36.19,58.58-86.19,58.58-141.42v-1200c0-55.23,22.38-105.23,58.58-141.42c36.19-36.2,86.19-58.58,141.42-58.58
	s105.23,22.38,141.42,58.58C1979.12,96.27,2001.5,146.27,2001.5,201.5z"/>
<path style="stroke:#9B9B9B;stroke-width:3;stroke-miterlimit:10;" d="M1942.92,2840.08c-36.19-36.2-86.19-58.58-141.42-58.58
	c-110.46,0-200-89.54-200-200c0-55.23-22.38-105.23-58.58-141.42c-36.19-36.2-86.19-58.58-141.42-58.58h-800
	c-55.23,0-105.23,22.38-141.42,58.58c-36.2,36.19-58.58,86.19-58.58,141.42s-22.38,105.23-58.58,141.42
	c-36.19,36.2-86.19,58.58-141.42,58.58s-105.23,22.38-141.42,58.58c-36.2,36.19-58.58,86.19-58.58,141.42v1200
	c0,110.46,89.54,200,200,200c55.23,0,105.23-22.38,141.42-58.58c36.2-36.19,58.58-86.19,58.58-141.42v-400
	c0-55.23,22.38-105.23,58.58-141.42c36.19-36.2,86.19-58.58,141.42-58.58h800c55.23,0,105.23,22.38,141.42,58.58
	c36.2,36.19,58.58,86.19,58.58,141.42v400c0,110.46,89.54,200,200,200c55.23,0,105.23-22.38,141.42-58.58
	c36.2-36.19,58.58-86.19,58.58-141.42v-1200C2001.5,2926.27,1979.12,2876.27,1942.92,2840.08z M1542.92,3122.92
	c-36.19,36.2-86.19,58.58-141.42,58.58h-800c-110.46,0-200-89.54-200-200c0-55.23,22.38-105.23,58.58-141.42
	c36.19-36.2,86.19-58.58,141.42-58.58h800c55.23,0,105.23,22.38,141.42,58.58c36.2,36.19,58.58,86.19,58.58,141.42
	S1579.12,3086.73,1542.92,3122.92z"/>
<path style="stroke:#9B9B9B;stroke-width:3;stroke-miterlimit:10;" d="M2001.5,5086.5v800c0,55.23-22.38,105.23-58.58,141.42
	c-36.19,36.2-86.19,58.58-141.42,58.58s-105.23,22.38-141.42,58.58c-36.2,36.19-58.58,86.19-58.58,141.42
	s-22.38,105.23-58.58,141.42c-36.19,36.2-86.19,58.58-141.42,58.58s-105.23,22.38-141.42,58.58
	c-36.2,36.19-58.58,86.19-58.58,141.42s-22.38,105.23-58.58,141.42c-36.19,36.2-86.19,58.58-141.42,58.58
	c-110.46,0-200-89.54-200-200c0-55.23-22.38-105.23-58.58-141.42c-36.19-36.2-86.19-58.58-141.42-58.58c-110.46,0-200-89.54-200-200
	c0-55.23-22.38-105.23-58.58-141.42c-36.19-36.2-86.19-58.58-141.42-58.58c-110.46,0-200-89.54-200-200v-800
	c0-55.23,22.38-105.23,58.58-141.42c36.19-36.2,86.19-58.58,141.42-58.58s105.23,22.38,141.42,58.58
	c36.2,36.19,58.58,86.19,58.58,141.42v800c0,110.46,89.54,200,200,200c55.23,0,105.23,22.38,141.42,58.58
	c36.2,36.19,58.58,86.19,58.58,141.42c0,110.46,89.54,200,200,200c55.23,0,105.23-22.38,141.42-58.58
	c36.2-36.19,58.58-86.19,58.58-141.42s22.38-105.23,58.58-141.42c36.19-36.2,86.19-58.58,141.42-58.58s105.23-22.38,141.42-58.58
	c36.2-36.19,58.58-86.19,58.58-141.42v-800c0-55.23,22.38-105.23,58.58-141.42c36.19-36.2,86.19-58.58,141.42-58.58
	s105.23,22.38,141.42,58.58C1979.12,4981.27,2001.5,5031.27,2001.5,5086.5z"/>
<path style="stroke:#9B9B9B;stroke-width:3;stroke-miterlimit:10;" d="M1942.92,7690.08c-36.19-36.2-86.19-58.58-141.42-58.58
	c-110.46,0-200-89.54-200-200c0-55.23-22.38-105.23-58.58-141.42c-36.19-36.2-86.19-58.58-141.42-58.58h-800
	c-55.23,0-105.23,22.38-141.42,58.58c-36.2,36.19-58.58,86.19-58.58,141.42s-22.38,105.23-58.58,141.42
	c-36.19,36.2-86.19,58.58-141.42,58.58s-105.23,22.38-141.42,58.58c-36.2,36.19-58.58,86.19-58.58,141.42v800
	c0,110.46,89.54,200,200,200c55.23,0,105.23,22.38,141.42,58.58c36.2,36.189,58.58,86.189,58.58,141.42c0,110.46,89.54,200,200,200
	h800c55.23,0,105.23-22.38,141.42-58.58c36.2-36.189,58.58-86.189,58.58-141.42s22.38-105.23,58.58-141.42
	c36.19-36.2,86.19-58.58,141.42-58.58s105.23-22.38,141.42-58.58c36.2-36.189,58.58-86.189,58.58-141.42v-800
	C2001.5,7776.27,1979.12,7726.27,1942.92,7690.08z M1601.5,8631.5c0,55.23-22.38,105.23-58.58,141.42
	c-36.19,36.2-86.19,58.58-141.42,58.58h-800c-110.46,0-200-89.54-200-200v-800c0-55.23,22.38-105.23,58.58-141.42
	c36.19-36.2,86.19-58.58,141.42-58.58h800c55.23,0,105.23,22.38,141.42,58.58c36.2,36.19,58.58,86.19,58.58,141.42V8631.5z"/>
<path style="stroke:#9B9B9B;stroke-width:3;stroke-miterlimit:10;" d="M1801.5,10766.5c-110.46,0-200-89.54-200-200
	c0-55.23,22.38-105.23,58.58-141.42c36.19-36.2,86.19-58.58,141.42-58.58s105.23-22.38,141.42-58.58
	c36.2-36.189,58.58-86.189,58.58-141.42s-22.38-105.23-58.58-141.42c-36.19-36.2-86.19-58.58-141.42-58.58
	c-110.46,0-200-89.54-200-200c0-55.23-22.38-105.23-58.58-141.42c-36.19-36.2-86.19-58.58-141.42-58.58h-1200
	c-55.23,0-105.23,22.38-141.42,58.58C23.88,9661.27,1.5,9711.27,1.5,9766.5v1600c0,110.46,89.54,200,200,200
	c55.23,0,105.23-22.38,141.42-58.58c36.2-36.189,58.58-86.189,58.58-141.42v-600h1000c55.23,0,105.23,22.38,141.42,58.58
	c36.2,36.189,58.58,86.189,58.58,141.42v400c0,110.46,89.54,200,200,200c55.23,0,105.23-22.38,141.42-58.58
	c36.2-36.189,58.58-86.189,58.58-141.42v-400c0-55.23-22.38-105.23-58.58-141.42C1906.73,10788.88,1856.73,10766.5,1801.5,10766.5z
	 M1542.92,10307.92c-36.19,36.2-86.19,58.58-141.42,58.58h-800c-110.46,0-200-89.54-200-200c0-55.23,22.38-105.23,58.58-141.42
	c36.19-36.2,86.19-58.58,141.42-58.58h800c55.23,0,105.23,22.38,141.42,58.58c36.2,36.189,58.58,86.189,58.58,141.42
	S1579.12,10271.73,1542.92,10307.92z"/>
<path style="stroke:#9B9B9B;stroke-width:3;stroke-miterlimit:10;" d="M2001.5,12176.5v1600c0,55.23-22.38,105.23-58.58,141.42
	c-36.19,36.2-86.19,58.58-141.42,58.58h-1600c-110.46,0-200-89.54-200-200v-1600c0-55.23,22.38-105.23,58.58-141.42
	c36.19-36.2,86.19-58.58,141.42-58.58s105.23,22.38,141.42,58.58c36.2,36.189,58.58,86.189,58.58,141.42v1200
	c0,110.46,89.54,200,200,200h800c55.23,0,105.23-22.38,141.42-58.58c36.2-36.189,58.58-86.189,58.58-141.42v-1200
	c0-55.23,22.38-105.23,58.58-141.42c36.19-36.2,86.19-58.58,141.42-58.58s105.23,22.38,141.42,58.58
	C1979.12,12071.27,2001.5,12121.27,2001.5,12176.5z"/>
</svg>
